{
  "source": "C:\\Users\\Peter\\Desktop\\stuff\\MIUN\\quantitative_research\\video_compression\\videos\\HEVC_CLASS_B\\Kimono_1920x1080_24.y4m",
  "output": "C:\\Users\\Peter\\Desktop\\stuff\\MIUN\\quantitative_research\\video_compression\\compressed_videos\\HEVC_CLASS_B\\hevc\\3\\Kimono_1920x1080_24_hevc.mp4",
  "codec": "hevc",
  "ok": "Input #0, yuv4mpegpipe, from 'C:\\Users\\Peter\\Desktop\\stuff\\MIUN\\quantitative_research\\video_compression\\videos\\HEVC_CLASS_B\\Kimono_1920x1080_24.y4m':\n  Duration: 00:00:10.00, start: 0.000000, bitrate: 597198 kb/s\n  Stream #0:0: Video: rawvideo (I420 / 0x30323449), yuv420p(progressive), 1920x1080, 24 fps, 24 tbr, 24 tbn\n[out#0/mp4 @ 000002e87ea5b580] Codec AVOption b:a (set bitrate (in bits/s)) has not been used for any stream. The most likely reason is either wrong type (e.g. a video option with no video streams) or that it is a private option of some decoder which was not actually used for any stream.\nStream mapping:\n  Stream #0:0 -> #0:0 (rawvideo (native) -> hevc (libx265))\nPress [q] to stop, [?] for help\n[libx265 @ 000002e87ea5c940] Unknown option: \"aq-mode.\nx265 [info]: HEVC encoder version 4.1+190-8f11c33ac\nx265 [info]: build info [Windows][GCC 15.1.0][64 bit] 10bit\nx265 [info]: using cpu capabilities: MMX2 SSE2Fast LZCNT SSSE3 SSE4.2 AVX FMA3 BMI2 AVX2\nx265 [info]: Main 10 profile, Level-4 (Main tier)\nx265 [info]: Thread pool created using 12 threads\nx265 [info]: Slices                              : 1\nx265 [info]: frame threads / pool features       : 3 / wpp(17 rows)\nx265 [info]: Coding QT: max CU size, min CU size : 64 / 8\nx265 [info]: Residual QT: max TU size, max depth : 32 / 1 inter / 1 intra\nx265 [info]: ME / range / subpel / merge         : star / 57 / 3 / 3\nx265 [info]: Keyframe min / max / scenecut / bias  : 24 / 250 / 40 / 5.00 \nx265 [info]: Lookahead / bframes / badapt        : 25 / 4 / 2\nx265 [info]: b-pyramid / weightp / weightb       : 1 / 1 / 0\nx265 [info]: References / ref-limit  cu / depth  : 4 / on / on\nx265 [info]: AQ: mode / str / qg-size / cu-tree  : 2 / 1.0 / 32 / 1\nx265 [info]: Rate Control / qCompress            : ABR-3000 kbps / 0.60\nx265 [info]: VBV/HRD buffer / max-rate / init    : 3000 / 3000 / 0.750\nx265 [info]: tools: rect limit-modes rd=4 psy-rd=2.00 rdoq=2 psy-rdoq=1.00\nx265 [info]: tools: rskip mode=1 signhide tmvp strong-intra-smoothing lslices=4\nx265 [info]: tools: deblock sao dhdr10-info\nOutput #0, mp4, to 'C:\\Users\\Peter\\Desktop\\stuff\\MIUN\\quantitative_research\\video_compression\\compressed_videos\\HEVC_CLASS_B\\hevc\\3\\Kimono_1920x1080_24_hevc.mp4':\n  Metadata:\n    encoder         : Lavf62.3.100\n  Stream #0:0: Video: hevc (hev1 / 0x31766568), yuv420p10le(tv, progressive), 1920x1080, q=2-31, 3000 kb/s, 24 fps, 12288 tbn\n    Metadata:\n      encoder         : Lavc62.11.100 libx265\n    Side data:\n      cpb: bitrate max/min/avg: 3000000/0/3000000 buffer size: 3000000 vbv_delay: N/A\nframe=    0 fps=0.0 q=0.0 size=       0KiB time=N/A bitrate=N/A speed=N/A elapsed=0:00:00.57    \nframe=    0 fps=0.0 q=0.0 size=       0KiB time=N/A bitrate=N/A speed=N/A elapsed=0:00:01.28    \nframe=    0 fps=0.0 q=0.0 size=       0KiB time=N/A bitrate=N/A speed=N/A elapsed=0:00:01.84    \nframe=    0 fps=0.0 q=0.0 size=       0KiB time=N/A bitrate=N/A speed=N/A elapsed=0:00:02.38    \nframe=    0 fps=0.0 q=0.0 size=       0KiB time=N/A bitrate=N/A speed=N/A elapsed=0:00:02.91    \nframe=    0 fps=0.0 q=0.0 size=       0KiB time=N/A bitrate=N/A speed=N/A elapsed=0:00:03.50    \nframe=    0 fps=0.0 q=0.0 size=       0KiB time=N/A bitrate=N/A speed=N/A elapsed=0:00:04.07    \nframe=    0 fps=0.0 q=0.0 size=       0KiB time=N/A bitrate=N/A speed=N/A elapsed=0:00:04.67    \nframe=    0 fps=0.0 q=0.0 size=       0KiB time=N/A bitrate=N/A speed=N/A elapsed=0:00:05.22    \nframe=    0 fps=0.0 q=0.0 size=       0KiB time=N/A bitrate=N/A speed=N/A elapsed=0:00:05.79    \nframe=    0 fps=0.0 q=0.0 size=       0KiB time=N/A bitrate=N/A speed=N/A elapsed=0:00:06.32    \nframe=    0 fps=0.0 q=0.0 size=       0KiB time=N/A bitrate=N/A speed=N/A elapsed=0:00:06.88    \nframe=    0 fps=0.0 q=0.0 size=       0KiB time=N/A bitrate=N/A speed=N/A elapsed=0:00:07.42    \nframe=    0 fps=0.0 q=0.0 size=       0KiB time=N/A bitrate=N/A speed=N/A elapsed=0:00:07.95    \nframe=    0 fps=0.0 q=0.0 size=       0KiB time=N/A bitrate=N/A speed=N/A elapsed=0:00:08.51    \nframe=    0 fps=0.0 q=0.0 size=       0KiB time=N/A bitrate=N/A speed=N/A elapsed=0:00:09.09    \nframe=    0 fps=0.0 q=0.0 size=       0KiB time=N/A bitrate=N/A speed=N/A elapsed=0:00:09.63    \nframe=    0 fps=0.0 q=0.0 size=       0KiB time=N/A bitrate=N/A speed=N/A elapsed=0:00:10.18    \nframe=    0 fps=0.0 q=0.0 size=       0KiB time=N/A bitrate=N/A speed=N/A elapsed=0:00:10.71    \nframe=    0 fps=0.0 q=0.0 size=       0KiB time=N/A bitrate=N/A speed=N/A elapsed=0:00:11.25    \nframe=    0 fps=0.0 q=0.0 size=       0KiB time=N/A bitrate=N/A speed=N/A elapsed=0:00:11.80    \nframe=    0 fps=0.0 q=0.0 size=       0KiB time=N/A bitrate=N/A speed=N/A elapsed=0:00:12.31    \nframe=    0 fps=0.0 q=0.0 size=       0KiB time=N/A bitrate=N/A speed=N/A elapsed=0:00:12.84    \nframe=    0 fps=0.0 q=0.0 size=       0KiB time=N/A bitrate=N/A speed=N/A elapsed=0:00:13.38    \nframe=    0 fps=0.0 q=0.0 size=       0KiB time=N/A bitrate=N/A speed=N/A elapsed=0:00:13.90    \nframe=    0 fps=0.0 q=0.0 size=       0KiB time=N/A bitrate=N/A speed=N/A elapsed=0:00:14.41    \nframe=    0 fps=0.0 q=0.0 size=       0KiB time=N/A bitrate=N/A speed=N/A elapsed=0:00:14.94    \nframe=    0 fps=0.0 q=0.0 size=       0KiB time=N/A bitrate=N/A speed=N/A elapsed=0:00:15.48    \nframe=    0 fps=0.0 q=0.0 size=       0KiB time=N/A bitrate=N/A speed=N/A elapsed=0:00:16.00    \nframe=    0 fps=0.0 q=0.0 size=       0KiB time=N/A bitrate=N/A speed=N/A elapsed=0:00:16.52    \nframe=    0 fps=0.0 q=0.0 size=       0KiB time=N/A bitrate=N/A speed=N/A elapsed=0:00:17.07    \nframe=    0 fps=0.0 q=0.0 size=       0KiB time=N/A bitrate=N/A speed=N/A elapsed=0:00:17.61    \nframe=    0 fps=0.0 q=0.0 size=       0KiB time=N/A bitrate=N/A speed=N/A elapsed=0:00:18.20    \nframe=    0 fps=0.0 q=0.0 size=       0KiB time=N/A bitrate=N/A speed=N/A elapsed=0:00:18.85    \nframe=    0 fps=0.0 q=0.0 size=       0KiB time=N/A bitrate=N/A speed=N/A elapsed=0:00:19.43    \nframe=    0 fps=0.0 q=0.0 size=       0KiB time=N/A bitrate=N/A speed=N/A elapsed=0:00:20.00    \nframe=    0 fps=0.0 q=0.0 size=       0KiB time=N/A bitrate=N/A speed=N/A elapsed=0:00:20.51    \nframe=    1 fps=0.0 q=30.8 size=       0KiB time=-00:00:00.04 bitrate=N/A speed=N/A elapsed=0:00:21.04    \nframe=    1 fps=0.0 q=30.8 size=       0KiB time=-00:00:00.04 bitrate=N/A speed=N/A elapsed=0:00:21.58    \nframe=    1 fps=0.0 q=30.8 size=       0KiB time=-00:00:00.04 bitrate=N/A speed=N/A elapsed=0:00:22.11    \nframe=    1 fps=0.0 q=30.8 size=       0KiB time=-00:00:00.04 bitrate=N/A speed=N/A elapsed=0:00:22.64    \nframe=    2 fps=0.1 q=34.6 size=       0KiB time=00:00:00.00 bitrate=N/A speed=   0x elapsed=0:00:23.21    \nframe=    2 fps=0.1 q=34.6 size=       0KiB time=00:00:00.00 bitrate=N/A speed=   0x elapsed=0:00:23.77    \nframe=    2 fps=0.1 q=34.6 size=       0KiB time=00:00:00.00 bitrate=N/A speed=   0x elapsed=0:00:24.31    \nframe=    2 fps=0.1 q=34.6 size=       0KiB time=00:00:00.00 bitrate=N/A speed=   0x elapsed=0:00:24.87    \nframe=    2 fps=0.1 q=34.6 size=       0KiB time=00:00:00.00 bitrate=N/A speed=   0x elapsed=0:00:25.42    \nframe=    3 fps=0.1 q=37.1 size=       0KiB time=00:00:00.04 bitrate=   8.4kbits/s speed=0.00161x elapsed=0:00:25.94    \nframe=    3 fps=0.1 q=37.1 size=       0KiB time=00:00:00.04 bitrate=   8.4kbits/s speed=0.00157x elapsed=0:00:26.46    \nframe=    3 fps=0.1 q=37.1 size=       0KiB time=00:00:00.04 bitrate=   8.4kbits/s speed=0.00154x elapsed=0:00:27.01    \nframe=    3 fps=0.1 q=37.1 size=       0KiB time=00:00:00.04 bitrate=   8.4kbits/s speed=0.00151x elapsed=0:00:27.55    \nframe=    3 fps=0.1 q=37.1 size=       0KiB time=00:00:00.04 bitrate=   8.4kbits/s speed=0.00148x elapsed=0:00:28.08    \nframe=    3 fps=0.1 q=37.1 size=       0KiB time=00:00:00.04 bitrate=   8.4kbits/s speed=0.00146x elapsed=0:00:28.58    \nframe=    3 fps=0.1 q=37.1 size=       0KiB time=00:00:00.04 bitrate=   8.4kbits/s speed=0.00143x elapsed=0:00:29.11    \nframe=    3 fps=0.1 q=37.1 size=       0KiB time=00:00:00.04 bitrate=   8.4kbits/s speed=0.0014x elapsed=0:00:29.67    \nframe=    3 fps=0.1 q=37.1 size=       0KiB time=00:00:00.04 bitrate=   8.4kbits/s speed=0.00138x elapsed=0:00:30.17    \nframe=    4 fps=0.1 q=39.0 size=       0KiB time=00:00:00.08 bitrate=   4.2kbits/s speed=0.00271x elapsed=0:00:30.70    \nframe=    4 fps=0.1 q=39.0 size=       0KiB time=00:00:00.08 bitrate=   4.2kbits/s speed=0.00266x elapsed=0:00:31.27    \nframe=    4 fps=0.1 q=39.0 size=       0KiB time=00:00:00.08 bitrate=   4.2kbits/s speed=0.00261x elapsed=0:00:31.89    \nframe=    4 fps=0.1 q=39.0 size=       0KiB time=00:00:00.08 bitrate=   4.2kbits/s speed=0.00257x elapsed=0:00:32.45    \nframe=    4 fps=0.1 q=39.0 size=       0KiB time=00:00:00.08 bitrate=   4.2kbits/s speed=0.00252x elapsed=0:00:33.02    \nframe=    4 fps=0.1 q=39.0 size=       0KiB time=00:00:00.08 bitrate=   4.2kbits/s speed=0.00248x elapsed=0:00:33.54    \nframe=    4 fps=0.1 q=39.0 size=       0KiB time=00:00:00.08 bitrate=   4.2kbits/s speed=0.00245x elapsed=0:00:34.05    \nframe=    4 fps=0.1 q=39.0 size=       0KiB time=00:00:00.08 bitrate=   4.2kbits/s speed=0.00241x elapsed=0:00:34.57    \nframe=    4 fps=0.1 q=39.0 size=       0KiB time=00:00:00.08 bitrate=   4.2kbits/s speed=0.00238x elapsed=0:00:35.08    \nframe=    4 fps=0.1 q=39.0 size=       0KiB time=00:00:00.08 bitrate=   4.2kbits/s speed=0.00234x elapsed=0:00:35.61    \nframe=    4 fps=0.1 q=39.0 size=       0KiB time=00:00:00.08 bitrate=   4.2kbits/s speed=0.00231x elapsed=0:00:36.11    \nframe=    5 fps=0.1 q=37.9 size=       0KiB time=00:00:00.12 bitrate=   2.8kbits/s speed=0.00341x elapsed=0:00:36.63    \nframe=    5 fps=0.1 q=37.9 size=       0KiB time=00:00:00.12 bitrate=   2.8kbits/s speed=0.00336x elapsed=0:00:37.15    \nframe=    5 fps=0.1 q=37.9 size=       0KiB time=00:00:00.12 bitrate=   2.8kbits/s speed=0.00332x elapsed=0:00:37.66    \nframe=    5 fps=0.1 q=37.9 size=       0KiB time=00:00:00.12 bitrate=   2.8kbits/s speed=0.00327x elapsed=0:00:38.18    \nframe=    5 fps=0.1 q=37.9 size=       0KiB time=00:00:00.12 bitrate=   2.8kbits/s speed=0.00323x elapsed=0:00:38.71    \nframe=    6 fps=0.2 q=33.1 size=       0KiB time=00:00:00.16 bitrate=   2.1kbits/s speed=0.00425x elapsed=0:00:39.24    \nframe=    6 fps=0.2 q=33.1 size=       0KiB time=00:00:00.16 bitrate=   2.1kbits/s speed=0.00419x elapsed=0:00:39.76    \nframe=    6 fps=0.1 q=33.1 size=       0KiB time=00:00:00.16 bitrate=   2.1kbits/s speed=0.00414x elapsed=0:00:40.28    \nframe=    6 fps=0.1 q=33.1 size=       0KiB time=00:00:00.16 bitrate=   2.1kbits/s speed=0.00409x elapsed=0:00:40.79    \nframe=    6 fps=0.1 q=33.1 size=       0KiB time=00:00:00.16 bitrate=   2.1kbits/s speed=0.00403x elapsed=0:00:41.31    \nframe=    6 fps=0.1 q=33.1 size=       0KiB time=00:00:00.16 bitrate=   2.1kbits/s speed=0.00398x elapsed=0:00:41.83    \nframe=    6 fps=0.1 q=33.1 size=       0KiB time=00:00:00.16 bitrate=   2.1kbits/s speed=0.00394x elapsed=0:00:42.33    \nframe=    6 fps=0.1 q=33.1 size=       0KiB time=00:00:00.16 bitrate=   2.1kbits/s speed=0.00389x elapsed=0:00:42.84    \nframe=    7 fps=0.2 q=36.8 size=       0KiB time=00:00:00.20 bitrate=   1.7kbits/s speed=0.0048x elapsed=0:00:43.37    \nframe=    7 fps=0.2 q=36.8 size=       0KiB time=00:00:00.20 bitrate=   1.7kbits/s speed=0.00475x elapsed=0:00:43.88    \nframe=    7 fps=0.2 q=36.8 size=       0KiB time=00:00:00.20 bitrate=   1.7kbits/s speed=0.00469x elapsed=0:00:44.40    \nframe=    7 fps=0.2 q=36.8 size=       0KiB time=00:00:00.20 bitrate=   1.7kbits/s speed=0.00464x elapsed=0:00:44.92    \nframe=    7 fps=0.2 q=36.8 size=       0KiB time=00:00:00.20 bitrate=   1.7kbits/s speed=0.00459x elapsed=0:00:45.43    \nframe=    7 fps=0.2 q=36.8 size=       0KiB time=00:00:00.20 bitrate=   1.7kbits/s speed=0.00453x elapsed=0:00:45.94    \nframe=    7 fps=0.2 q=36.8 size=       0KiB time=00:00:00.20 bitrate=   1.7kbits/s speed=0.00448x elapsed=0:00:46.46    \nframe=    7 fps=0.1 q=36.8 size=       0KiB time=00:00:00.20 bitrate=   1.7kbits/s speed=0.00444x elapsed=0:00:46.97    \nframe=    7 fps=0.1 q=36.8 size=       0KiB time=00:00:00.20 bitrate=   1.7kbits/s speed=0.00439x elapsed=0:00:47.49    \nframe=    8 fps=0.2 q=38.7 size=       0KiB time=00:00:00.25 bitrate=   1.4kbits/s speed=0.00521x elapsed=0:00:48.00    \nframe=    8 fps=0.2 q=38.7 size=       0KiB time=00:00:00.25 bitrate=   1.4kbits/s speed=0.00515x elapsed=0:00:48.52    \nframe=    8 fps=0.2 q=38.7 size=       0KiB time=00:00:00.25 bitrate=   1.4kbits/s speed=0.0051x elapsed=0:00:49.04    \nframe=    8 fps=0.2 q=38.7 size=       0KiB time=00:00:00.25 bitrate=   1.4kbits/s speed=0.00504x elapsed=0:00:49.55    \nframe=    8 fps=0.2 q=38.7 size=       0KiB time=00:00:00.25 bitrate=   1.4kbits/s speed=0.00499x elapsed=0:00:50.07    \nframe=    8 fps=0.2 q=38.7 size=       0KiB time=00:00:00.25 bitrate=   1.4kbits/s speed=0.00494x elapsed=0:00:50.58    \nframe=    8 fps=0.2 q=38.7 size=       0KiB time=00:00:00.25 bitrate=   1.4kbits/s speed=0.00489x elapsed=0:00:51.11    \nframe=    8 fps=0.2 q=38.7 size=       0KiB time=00:00:00.25 bitrate=   1.4kbits/s speed=0.00484x elapsed=0:00:51.64    \nframe=    8 fps=0.2 q=38.7 size=       0KiB time=00:00:00.25 bitrate=   1.4kbits/s speed=0.00479x elapsed=0:00:52.14    \nframe=    8 fps=0.2 q=38.7 size=       0KiB time=00:00:00.25 bitrate=   1.4kbits/s speed=0.00475x elapsed=0:00:52.66    \nframe=    8 fps=0.2 q=38.7 size=       0KiB time=00:00:00.25 bitrate=   1.4kbits/s speed=0.0047x elapsed=0:00:53.17    \nframe=    8 fps=0.1 q=38.7 size=       0KiB time=00:00:00.25 bitrate=   1.4kbits/s speed=0.00466x elapsed=0:00:53.70    \nframe=    8 fps=0.1 q=38.7 size=       0KiB time=00:00:00.25 bitrate=   1.4kbits/s speed=0.00461x elapsed=0:00:54.21    \nframe=    8 fps=0.1 q=38.7 size=       0KiB time=00:00:00.25 bitrate=   1.4kbits/s speed=0.00457x elapsed=0:00:54.72    \nframe=    8 fps=0.1 q=38.7 size=       0KiB time=00:00:00.25 bitrate=   1.4kbits/s speed=0.00453x elapsed=0:00:55.24    \nframe=    8 fps=0.1 q=38.7 size=       0KiB time=00:00:00.25 bitrate=   1.4kbits/s speed=0.00448x elapsed=0:00:55.76    \nframe=    8 fps=0.1 q=38.7 size=       0KiB time=00:00:00.25 bitrate=   1.4kbits/s speed=0.00444x elapsed=0:00:56.27    \nframe=    8 fps=0.1 q=38.7 size=       0KiB time=00:00:00.25 bitrate=   1.4kbits/s speed=0.0044x elapsed=0:00:56.79    \nframe=    8 fps=0.1 q=38.7 size=       0KiB time=00:00:00.25 bitrate=   1.4kbits/s speed=0.00436x elapsed=0:00:57.30    \nframe=    9 fps=0.2 q=38.1 size=       0KiB time=00:00:00.29 bitrate=   1.2kbits/s speed=0.00504x elapsed=0:00:57.81    \nframe=    9 fps=0.2 q=38.1 size=       0KiB time=00:00:00.29 bitrate=   1.2kbits/s speed=0.005x elapsed=0:00:58.33    \nframe=    9 fps=0.2 q=38.1 size=       0KiB time=00:00:00.29 bitrate=   1.2kbits/s speed=0.00496x elapsed=0:00:58.85    \nframe=    9 fps=0.2 q=38.1 size=       0KiB time=00:00:00.29 bitrate=   1.2kbits/s speed=0.00491x elapsed=0:00:59.38    \nframe=    9 fps=0.2 q=38.1 size=       0KiB time=00:00:00.29 bitrate=   1.2kbits/s speed=0.00487x elapsed=0:00:59.90    \nframe=    9 fps=0.1 q=38.1 size=       0KiB time=00:00:00.29 bitrate=   1.2kbits/s speed=0.00483x elapsed=0:01:00.41    \nframe=    9 fps=0.1 q=38.1 size=       0KiB time=00:00:00.29 bitrate=   1.2kbits/s speed=0.00479x elapsed=0:01:00.93    \nframe=    9 fps=0.1 q=38.1 size=       0KiB time=00:00:00.29 bitrate=   1.2kbits/s speed=0.00475x elapsed=0:01:01.44    \nframe=    9 fps=0.1 q=38.1 size=       0KiB time=00:00:00.29 bitrate=   1.2kbits/s speed=0.00471x elapsed=0:01:01.96    \nframe=   10 fps=0.2 q=37.3 size=       0KiB time=00:00:00.33 bitrate=   1.1kbits/s speed=0.00534x elapsed=0:01:02.47    \nframe=   10 fps=0.2 q=37.3 size=       0KiB time=00:00:00.33 bitrate=   1.1kbits/s speed=0.00529x elapsed=0:01:02.99    \nframe=   10 fps=0.2 q=37.3 size=       0KiB time=00:00:00.33 bitrate=   1.1kbits/s speed=0.00525x elapsed=0:01:03.51    \nframe=   10 fps=0.2 q=37.3 size=       0KiB time=00:00:00.33 bitrate=   1.1kbits/s speed=0.00521x elapsed=0:01:04.03    \nframe=   10 fps=0.2 q=37.3 size=       0KiB time=00:00:00.33 bitrate=   1.1kbits/s speed=0.00516x elapsed=0:01:04.54    \nframe=   10 fps=0.2 q=37.3 size=       0KiB time=00:00:00.33 bitrate=   1.1kbits/s speed=0.00512x elapsed=0:01:05.05    \nframe=   10 fps=0.2 q=37.3 size=       0KiB time=00:00:00.33 bitrate=   1.1kbits/s speed=0.00508x elapsed=0:01:05.57    \nframe=   10 fps=0.2 q=37.3 size=       0KiB time=00:00:00.33 bitrate=   1.1kbits/s speed=0.00504x elapsed=0:01:06.09    \nframe=   11 fps=0.2 q=31.1 size=       0KiB time=00:00:00.37 bitrate=   0.9kbits/s speed=0.00563x elapsed=0:01:06.61    \nframe=   11 fps=0.2 q=31.1 size=       0KiB time=00:00:00.37 bitrate=   0.9kbits/s speed=0.00559x elapsed=0:01:07.14    \nframe=   11 fps=0.2 q=31.1 size=       0KiB time=00:00:00.37 bitrate=   0.9kbits/s speed=0.00554x elapsed=0:01:07.64    \nframe=   11 fps=0.2 q=31.1 size=       0KiB time=00:00:00.37 bitrate=   0.9kbits/s speed=0.0055x elapsed=0:01:08.17    \nframe=   11 fps=0.2 q=31.1 size=       0KiB time=00:00:00.37 bitrate=   0.9kbits/s speed=0.00546x elapsed=0:01:08.68    \nframe=   11 fps=0.2 q=31.1 size=       0KiB time=00:00:00.37 bitrate=   0.9kbits/s speed=0.00542x elapsed=0:01:09.19    \nframe=   11 fps=0.2 q=31.1 size=       0KiB time=00:00:00.37 bitrate=   0.9kbits/s speed=0.00538x elapsed=0:01:09.70    \nframe=   11 fps=0.2 q=31.1 size=       0KiB time=00:00:00.37 bitrate=   0.9kbits/s speed=0.00534x elapsed=0:01:10.23    \nframe=   11 fps=0.2 q=31.1 size=       0KiB time=00:00:00.37 bitrate=   0.9kbits/s speed=0.0053x elapsed=0:01:10.77    \nframe=   11 fps=0.2 q=31.1 size=       0KiB time=00:00:00.37 bitrate=   0.9kbits/s speed=0.00526x elapsed=0:01:11.29    \nframe=   12 fps=0.2 q=34.4 size=       0KiB time=00:00:00.41 bitrate=   0.8kbits/s speed=0.0058x elapsed=0:01:11.80    \nframe=   12 fps=0.2 q=34.4 size=       0KiB time=00:00:00.41 bitrate=   0.8kbits/s speed=0.00576x elapsed=0:01:12.32    \nframe=   12 fps=0.2 q=34.4 size=       0KiB time=00:00:00.41 bitrate=   0.8kbits/s speed=0.00572x elapsed=0:01:12.83    \nframe=   12 fps=0.2 q=34.4 size=       0KiB time=00:00:00.41 bitrate=   0.8kbits/s speed=0.00568x elapsed=0:01:13.35    \nframe=   12 fps=0.2 q=34.4 size=       0KiB time=00:00:00.41 bitrate=   0.8kbits/s speed=0.00564x elapsed=0:01:13.87    \nframe=   12 fps=0.2 q=34.4 size=       0KiB time=00:00:00.41 bitrate=   0.8kbits/s speed=0.0056x elapsed=0:01:14.38    \nframe=   12 fps=0.2 q=34.4 size=       0KiB time=00:00:00.41 bitrate=   0.8kbits/s speed=0.00556x elapsed=0:01:14.90    \nframe=   12 fps=0.2 q=34.4 size=       0KiB time=00:00:00.41 bitrate=   0.8kbits/s speed=0.00553x elapsed=0:01:15.41    \nframe=   12 fps=0.2 q=34.4 size=       0KiB time=00:00:00.41 bitrate=   0.8kbits/s speed=0.00549x elapsed=0:01:15.93    \nframe=   12 fps=0.2 q=34.4 size=       0KiB time=00:00:00.41 bitrate=   0.8kbits/s speed=0.00545x elapsed=0:01:16.45    \nframe=   12 fps=0.2 q=34.4 size=       0KiB time=00:00:00.41 bitrate=   0.8kbits/s speed=0.00541x elapsed=0:01:16.96    \nframe=   12 fps=0.2 q=34.4 size=       0KiB time=00:00:00.41 bitrate=   0.8kbits/s speed=0.00538x elapsed=0:01:17.47    \nframe=   12 fps=0.2 q=34.4 size=       0KiB time=00:00:00.41 bitrate=   0.8kbits/s speed=0.00534x elapsed=0:01:18.00    \nframe=   12 fps=0.2 q=34.4 size=       0KiB time=00:00:00.41 bitrate=   0.8kbits/s speed=0.00531x elapsed=0:01:18.50    \nframe=   13 fps=0.2 q=36.6 size=       0KiB time=00:00:00.45 bitrate=   0.8kbits/s speed=0.0058x elapsed=0:01:19.02    \nframe=   13 fps=0.2 q=36.6 size=       0KiB time=00:00:00.45 bitrate=   0.8kbits/s speed=0.00576x elapsed=0:01:19.54    \nframe=   13 fps=0.2 q=36.6 size=       0KiB time=00:00:00.45 bitrate=   0.8kbits/s speed=0.00572x elapsed=0:01:20.05    \nframe=   13 fps=0.2 q=36.6 size=       0KiB time=00:00:00.45 bitrate=   0.8kbits/s speed=0.00569x elapsed=0:01:20.57    \nframe=   14 fps=0.2 q=36.4 size=       0KiB time=00:00:00.50 bitrate=   0.7kbits/s speed=0.00617x elapsed=0:01:21.08    \nframe=   14 fps=0.2 q=36.4 size=       0KiB time=00:00:00.50 bitrate=   0.7kbits/s speed=0.00613x elapsed=0:01:21.61    \nframe=   14 fps=0.2 q=36.4 size=       0KiB time=00:00:00.50 bitrate=   0.7kbits/s speed=0.00609x elapsed=0:01:22.11    \nframe=   15 fps=0.2 q=31.2 size=       0KiB time=00:00:00.54 bitrate=   0.6kbits/s speed=0.00655x elapsed=0:01:22.64    \nframe=   15 fps=0.2 q=31.2 size=       0KiB time=00:00:00.54 bitrate=   0.6kbits/s speed=0.00651x elapsed=0:01:23.15    \nframe=   15 fps=0.2 q=31.2 size=       0KiB time=00:00:00.54 bitrate=   0.6kbits/s speed=0.00647x elapsed=0:01:23.66    \nframe=   16 fps=0.2 q=33.0 size=       0KiB time=00:00:00.58 bitrate=   0.6kbits/s speed=0.00693x elapsed=0:01:24.17    \nframe=   16 fps=0.2 q=33.0 size=       0KiB time=00:00:00.58 bitrate=   0.6kbits/s speed=0.00689x elapsed=0:01:24.69    \nframe=   16 fps=0.2 q=33.0 size=       0KiB time=00:00:00.58 bitrate=   0.6kbits/s speed=0.00685x elapsed=0:01:25.21    \nframe=   16 fps=0.2 q=33.0 size=       0KiB time=00:00:00.58 bitrate=   0.6kbits/s speed=0.0068x elapsed=0:01:25.73    \nframe=   16 fps=0.2 q=33.0 size=       0KiB time=00:00:00.58 bitrate=   0.6kbits/s speed=0.00676x elapsed=0:01:26.24    \nframe=   16 fps=0.2 q=33.0 size=       0KiB time=00:00:00.58 bitrate=   0.6kbits/s speed=0.00672x elapsed=0:01:26.76    \nframe=   17 fps=0.2 q=35.7 size=       0KiB time=00:00:00.62 bitrate=   0.6kbits/s speed=0.00716x elapsed=0:01:27.27    \nframe=   17 fps=0.2 q=35.7 size=       0KiB time=00:00:00.62 bitrate=   0.6kbits/s speed=0.00712x elapsed=0:01:27.78    \nframe=   17 fps=0.2 q=35.7 size=       0KiB time=00:00:00.62 bitrate=   0.6kbits/s speed=0.00708x elapsed=0:01:28.30    \nframe=   17 fps=0.2 q=35.7 size=       0KiB time=00:00:00.62 bitrate=   0.6kbits/s speed=0.00704x elapsed=0:01:28.82    \nframe=   17 fps=0.2 q=35.7 size=       0KiB time=00:00:00.62 bitrate=   0.6kbits/s speed=0.007x elapsed=0:01:29.33    \nframe=   17 fps=0.2 q=35.7 size=       0KiB time=00:00:00.62 bitrate=   0.6kbits/s speed=0.00695x elapsed=0:01:29.86    \nframe=   17 fps=0.2 q=35.7 size=       0KiB time=00:00:00.62 bitrate=   0.6kbits/s speed=0.00691x elapsed=0:01:30.38    \nframe=   17 fps=0.2 q=35.7 size=       0KiB time=00:00:00.62 bitrate=   0.6kbits/s speed=0.00688x elapsed=0:01:30.89    \nframe=   17 fps=0.2 q=35.7 size=       0KiB time=00:00:00.62 bitrate=   0.6kbits/s speed=0.00684x elapsed=0:01:31.41    \nframe=   17 fps=0.2 q=35.7 size=       0KiB time=00:00:00.62 bitrate=   0.6kbits/s speed=0.0068x elapsed=0:01:31.92    \nframe=   17 fps=0.2 q=35.7 size=       0KiB time=00:00:00.62 bitrate=   0.6kbits/s speed=0.00676x elapsed=0:01:32.45    \nframe=   17 fps=0.2 q=35.7 size=       0KiB time=00:00:00.62 bitrate=   0.6kbits/s speed=0.00672x elapsed=0:01:32.95    \nframe=   17 fps=0.2 q=35.7 size=       0KiB time=00:00:00.62 bitrate=   0.6kbits/s speed=0.00669x elapsed=0:01:33.47    \nframe=   17 fps=0.2 q=35.7 size=       0KiB time=00:00:00.62 bitrate=   0.6kbits/s speed=0.00665x elapsed=0:01:33.99    \nframe=   18 fps=0.2 q=35.8 size=       0KiB time=00:00:00.66 bitrate=   0.5kbits/s speed=0.00705x elapsed=0:01:34.51    \nframe=   18 fps=0.2 q=35.8 size=       0KiB time=00:00:00.66 bitrate=   0.5kbits/s speed=0.00702x elapsed=0:01:35.02    \nframe=   18 fps=0.2 q=35.8 size=       0KiB time=00:00:00.66 bitrate=   0.5kbits/s speed=0.00698x elapsed=0:01:35.54    \nframe=   18 fps=0.2 q=35.8 size=       0KiB time=00:00:00.66 bitrate=   0.5kbits/s speed=0.00694x elapsed=0:01:36.06    \nframe=   19 fps=0.2 q=30.8 size=       0KiB time=00:00:00.70 bitrate=   0.5kbits/s speed=0.00733x elapsed=0:01:36.58    \nframe=   19 fps=0.2 q=30.8 size=       0KiB time=00:00:00.70 bitrate=   0.5kbits/s speed=0.00729x elapsed=0:01:37.09    \nframe=   19 fps=0.2 q=30.8 size=       0KiB time=00:00:00.70 bitrate=   0.5kbits/s speed=0.00726x elapsed=0:01:37.61    \nframe=   19 fps=0.2 q=30.8 size=       0KiB time=00:00:00.70 bitrate=   0.5kbits/s speed=0.00722x elapsed=0:01:38.13    \nframe=   19 fps=0.2 q=30.8 size=       0KiB time=00:00:00.70 bitrate=   0.5kbits/s speed=0.00718x elapsed=0:01:38.65    \nframe=   19 fps=0.2 q=30.8 size=       0KiB time=00:00:00.70 bitrate=   0.5kbits/s speed=0.00714x elapsed=0:01:39.16    \nframe=   19 fps=0.2 q=30.8 size=       0KiB time=00:00:00.70 bitrate=   0.5kbits/s speed=0.00711x elapsed=0:01:39.68    \nframe=   19 fps=0.2 q=30.8 size=       0KiB time=00:00:00.70 bitrate=   0.5kbits/s speed=0.00707x elapsed=0:01:40.20    \nframe=   19 fps=0.2 q=30.8 size=       0KiB time=00:00:00.70 bitrate=   0.5kbits/s speed=0.00703x elapsed=0:01:40.71    \nframe=   19 fps=0.2 q=30.8 size=       0KiB time=00:00:00.70 bitrate=   0.5kbits/s speed=0.007x elapsed=0:01:41.22    \nframe=   19 fps=0.2 q=30.8 size=       0KiB time=00:00:00.70 bitrate=   0.5kbits/s speed=0.00696x elapsed=0:01:41.74    \nframe=   20 fps=0.2 q=31.1 size=     256KiB time=00:00:00.75 bitrate=2796.7kbits/s speed=0.00733x elapsed=0:01:42.26    \nframe=   20 fps=0.2 q=31.1 size=     256KiB time=00:00:00.75 bitrate=2796.7kbits/s speed=0.0073x elapsed=0:01:42.77    \nframe=   20 fps=0.2 q=31.1 size=     256KiB time=00:00:00.75 bitrate=2796.7kbits/s speed=0.00726x elapsed=0:01:43.29    \nframe=   20 fps=0.2 q=31.1 size=     256KiB time=00:00:00.75 bitrate=2796.7kbits/s speed=0.00722x elapsed=0:01:43.80    \nframe=   20 fps=0.2 q=31.1 size=     256KiB time=00:00:00.75 bitrate=2796.7kbits/s speed=0.00719x elapsed=0:01:44.32    \nframe=   20 fps=0.2 q=31.1 size=     256KiB time=00:00:00.75 bitrate=2796.7kbits/s speed=0.00715x elapsed=0:01:44.84    \nframe=   20 fps=0.2 q=31.1 size=     256KiB time=00:00:00.75 bitrate=2796.7kbits/s speed=0.00712x elapsed=0:01:45.35    \nframe=   20 fps=0.2 q=31.1 size=     256KiB time=00:00:00.75 bitrate=2796.7kbits/s speed=0.00708x elapsed=0:01:45.87    \nframe=   20 fps=0.2 q=31.1 size=     256KiB time=00:00:00.75 bitrate=2796.7kbits/s speed=0.00705x elapsed=0:01:46.38    \nframe=   21 fps=0.2 q=36.1 size=     256KiB time=00:00:00.79 bitrate=2649.5kbits/s speed=0.00741x elapsed=0:01:46.90    \nframe=   21 fps=0.2 q=36.1 size=     256KiB time=00:00:00.79 bitrate=2649.5kbits/s speed=0.00737x elapsed=0:01:47.41    \nframe=   21 fps=0.2 q=36.1 size=     256KiB time=00:00:00.79 bitrate=2649.5kbits/s speed=0.00733x elapsed=0:01:47.93    \nframe=   21 fps=0.2 q=36.1 size=     256KiB time=00:00:00.79 bitrate=2649.5kbits/s speed=0.0073x elapsed=0:01:48.45    \nframe=   21 fps=0.2 q=36.1 size=     256KiB time=00:00:00.79 bitrate=2649.5kbits/s speed=0.00727x elapsed=0:01:48.96    \nframe=   21 fps=0.2 q=36.1 size=     256KiB time=00:00:00.79 bitrate=2649.5kbits/s speed=0.00723x elapsed=0:01:49.47    \nframe=   21 fps=0.2 q=36.1 size=     256KiB time=00:00:00.79 bitrate=2649.5kbits/s speed=0.0072x elapsed=0:01:49.99    \nframe=   21 fps=0.2 q=36.1 size=     256KiB time=00:00:00.79 bitrate=2649.5kbits/s speed=0.00716x elapsed=0:01:50.50    \nframe=   21 fps=0.2 q=36.1 size=     256KiB time=00:00:00.79 bitrate=2649.5kbits/s speed=0.00713x elapsed=0:01:51.02    \nframe=   21 fps=0.2 q=36.1 size=     256KiB time=00:00:00.79 bitrate=2649.5kbits/s speed=0.0071x elapsed=0:01:51.54    \nframe=   21 fps=0.2 q=36.1 size=     256KiB time=00:00:00.79 bitrate=2649.5kbits/s speed=0.00706x elapsed=0:01:52.06    \nframe=   21 fps=0.2 q=36.1 size=     256KiB time=00:00:00.79 bitrate=2649.5kbits/s speed=0.00703x elapsed=0:01:52.58    \nframe=   21 fps=0.2 q=36.1 size=     256KiB time=00:00:00.79 bitrate=2649.5kbits/s speed=0.007x elapsed=0:01:53.09    \nframe=   21 fps=0.2 q=36.1 size=     256KiB time=00:00:00.79 bitrate=2649.5kbits/s speed=0.00697x elapsed=0:01:53.60    \nframe=   21 fps=0.2 q=36.1 size=     256KiB time=00:00:00.79 bitrate=2649.5kbits/s speed=0.00694x elapsed=0:01:54.12    \nframe=   21 fps=0.2 q=36.1 size=     256KiB time=00:00:00.79 bitrate=2649.5kbits/s speed=0.00691x elapsed=0:01:54.63    \nframe=   21 fps=0.2 q=36.1 size=     256KiB time=00:00:00.79 bitrate=2649.5kbits/s speed=0.00688x elapsed=0:01:55.14    \nframe=   21 fps=0.2 q=36.1 size=     256KiB time=00:00:00.79 bitrate=2649.5kbits/s speed=0.00684x elapsed=0:01:55.67    \nframe=   21 fps=0.2 q=36.1 size=     256KiB time=00:00:00.79 bitrate=2649.5kbits/s speed=0.00681x elapsed=0:01:56.19    \nframe=   22 fps=0.2 q=35.4 size=     256KiB time=00:00:00.83 bitrate=2517.0kbits/s speed=0.00714x elapsed=0:01:56.70    \nframe=   22 fps=0.2 q=35.4 size=     256KiB time=00:00:00.83 bitrate=2517.0kbits/s speed=0.00711x elapsed=0:01:57.21    \nframe=   22 fps=0.2 q=35.4 size=     256KiB time=00:00:00.83 bitrate=2517.0kbits/s speed=0.00708x elapsed=0:01:57.72    \nframe=   22 fps=0.2 q=35.4 size=     256KiB time=00:00:00.83 bitrate=2517.0kbits/s speed=0.00705x elapsed=0:01:58.25    \nframe=   22 fps=0.2 q=35.4 size=     256KiB time=00:00:00.83 bitrate=2517.0kbits/s speed=0.00702x elapsed=0:01:58.76    \nframe=   22 fps=0.2 q=35.4 size=     256KiB time=00:00:00.83 bitrate=2517.0kbits/s speed=0.00699x elapsed=0:01:59.27    \nframe=   22 fps=0.2 q=35.4 size=     256KiB time=00:00:00.83 bitrate=2517.0kbits/s speed=0.00696x elapsed=0:01:59.78    \nframe=   22 fps=0.2 q=35.4 size=     256KiB time=00:00:00.83 bitrate=2517.0kbits/s speed=0.00693x elapsed=0:02:00.31    \nframe=   22 fps=0.2 q=35.4 size=     256KiB time=00:00:00.83 bitrate=2517.0kbits/s speed=0.0069x elapsed=0:02:00.83    \nframe=   22 fps=0.2 q=35.4 size=     256KiB time=00:00:00.83 bitrate=2517.0kbits/s speed=0.00687x elapsed=0:02:01.35    \nframe=   23 fps=0.2 q=35.5 size=     256KiB time=00:00:00.87 bitrate=2397.1kbits/s speed=0.00718x elapsed=0:02:01.86    \nframe=   23 fps=0.2 q=35.5 size=     256KiB time=00:00:00.87 bitrate=2397.1kbits/s speed=0.00715x elapsed=0:02:02.38    \nframe=   23 fps=0.2 q=35.5 size=     256KiB time=00:00:00.87 bitrate=2397.1kbits/s speed=0.00712x elapsed=0:02:02.90    \nframe=   23 fps=0.2 q=35.5 size=     256KiB time=00:00:00.87 bitrate=2397.1kbits/s speed=0.00709x elapsed=0:02:03.41    \nframe=   23 fps=0.2 q=35.5 size=     256KiB time=00:00:00.87 bitrate=2397.1kbits/s speed=0.00706x elapsed=0:02:03.93    \nframe=   24 fps=0.2 q=30.9 size=     256KiB time=00:00:00.91 bitrate=2288.2kbits/s speed=0.00737x elapsed=0:02:04.44    \nframe=   24 fps=0.2 q=30.9 size=     256KiB time=00:00:00.91 bitrate=2288.2kbits/s speed=0.00734x elapsed=0:02:04.96    \nframe=   24 fps=0.2 q=30.9 size=     256KiB time=00:00:00.91 bitrate=2288.2kbits/s speed=0.00731x elapsed=0:02:05.47    \nframe=   24 fps=0.2 q=30.9 size=     256KiB time=00:00:00.91 bitrate=2288.2kbits/s speed=0.00728x elapsed=0:02:05.98    \nframe=   24 fps=0.2 q=30.9 size=     256KiB time=00:00:00.91 bitrate=2288.2kbits/s speed=0.00725x elapsed=0:02:06.50    \nframe=   24 fps=0.2 q=30.9 size=     256KiB time=00:00:00.91 bitrate=2288.2kbits/s speed=0.00722x elapsed=0:02:07.02    \nframe=   25 fps=0.2 q=31.0 size=     256KiB time=00:00:00.95 bitrate=2188.7kbits/s speed=0.00751x elapsed=0:02:07.54    \nframe=   25 fps=0.2 q=31.0 size=     256KiB time=00:00:00.95 bitrate=2188.7kbits/s speed=0.00748x elapsed=0:02:08.05    \nframe=   25 fps=0.2 q=31.0 size=     256KiB time=00:00:00.95 bitrate=2188.7kbits/s speed=0.00745x elapsed=0:02:08.57    \nframe=   25 fps=0.2 q=31.0 size=     256KiB time=00:00:00.95 bitrate=2188.7kbits/s speed=0.00742x elapsed=0:02:09.09    \nframe=   26 fps=0.2 q=35.4 size=     256KiB time=00:00:01.00 bitrate=2097.5kbits/s speed=0.00772x elapsed=0:02:09.60    \nframe=   26 fps=0.2 q=35.4 size=     256KiB time=00:00:01.00 bitrate=2097.5kbits/s speed=0.00768x elapsed=0:02:10.12    \nframe=   26 fps=0.2 q=35.4 size=     256KiB time=00:00:01.00 bitrate=2097.5kbits/s speed=0.00766x elapsed=0:02:10.63    \nframe=   26 fps=0.2 q=35.4 size=     256KiB time=00:00:01.00 bitrate=2097.5kbits/s speed=0.00762x elapsed=0:02:11.14    \nframe=   26 fps=0.2 q=35.4 size=     256KiB time=00:00:01.00 bitrate=2097.5kbits/s speed=0.00759x elapsed=0:02:11.67    \nframe=   26 fps=0.2 q=35.4 size=     256KiB time=00:00:01.00 bitrate=2097.5kbits/s speed=0.00757x elapsed=0:02:12.18    \nframe=   26 fps=0.2 q=35.4 size=     256KiB time=00:00:01.00 bitrate=2097.5kbits/s speed=0.00754x elapsed=0:02:12.70    \nframe=   26 fps=0.2 q=35.4 size=     256KiB time=00:00:01.00 bitrate=2097.5kbits/s speed=0.00751x elapsed=0:02:13.23    \nframe=   26 fps=0.2 q=35.4 size=     256KiB time=00:00:01.00 bitrate=2097.5kbits/s speed=0.00748x elapsed=0:02:13.75    \nframe=   26 fps=0.2 q=35.4 size=     256KiB time=00:00:01.00 bitrate=2097.5kbits/s speed=0.00745x elapsed=0:02:14.27    \nframe=   26 fps=0.2 q=35.4 size=     256KiB time=00:00:01.00 bitrate=2097.5kbits/s speed=0.00742x elapsed=0:02:14.78    \nframe=   26 fps=0.2 q=35.4 size=     256KiB time=00:00:01.00 bitrate=2097.5kbits/s speed=0.00739x elapsed=0:02:15.31    \nframe=   26 fps=0.2 q=35.4 size=     256KiB time=00:00:01.00 bitrate=2097.5kbits/s speed=0.00736x elapsed=0:02:15.82    \nframe=   26 fps=0.2 q=35.4 size=     256KiB time=00:00:01.00 bitrate=2097.5kbits/s speed=0.00733x elapsed=0:02:16.33    \nframe=   26 fps=0.2 q=35.4 size=     256KiB time=00:00:01.00 bitrate=2097.5kbits/s speed=0.00731x elapsed=0:02:16.85    \nframe=   26 fps=0.2 q=35.4 size=     256KiB time=00:00:01.00 bitrate=2097.5kbits/s speed=0.00728x elapsed=0:02:17.37    \nframe=   26 fps=0.2 q=35.4 size=     256KiB time=00:00:01.00 bitrate=2097.5kbits/s speed=0.00725x elapsed=0:02:17.88    \nframe=   27 fps=0.2 q=35.4 size=     256KiB time=00:00:01.04 bitrate=2013.6kbits/s speed=0.00753x elapsed=0:02:18.39    \nframe=   27 fps=0.2 q=35.4 size=     256KiB time=00:00:01.04 bitrate=2013.6kbits/s speed=0.0075x elapsed=0:02:18.91    \nframe=   27 fps=0.2 q=35.4 size=     256KiB time=00:00:01.04 bitrate=2013.6kbits/s speed=0.00747x elapsed=0:02:19.42    \nframe=   27 fps=0.2 q=35.4 size=     256KiB time=00:00:01.04 bitrate=2013.6kbits/s speed=0.00744x elapsed=0:02:19.94    \nframe=   27 fps=0.2 q=35.4 size=     256KiB time=00:00:01.04 bitrate=2013.6kbits/s speed=0.00742x elapsed=0:02:20.46    \nframe=   28 fps=0.2 q=35.5 size=     256KiB time=00:00:01.08 bitrate=1936.2kbits/s speed=0.00768x elapsed=0:02:20.97    \nframe=   28 fps=0.2 q=35.5 size=     256KiB time=00:00:01.08 bitrate=1936.2kbits/s speed=0.00766x elapsed=0:02:21.49    \nframe=   28 fps=0.2 q=35.5 size=     256KiB time=00:00:01.08 bitrate=1936.2kbits/s speed=0.00763x elapsed=0:02:22.00    \nframe=   29 fps=0.2 q=30.7 size=     256KiB time=00:00:01.12 bitrate=1864.4kbits/s speed=0.00789x elapsed=0:02:22.52    \nframe=   29 fps=0.2 q=30.7 size=     256KiB time=00:00:01.12 bitrate=1864.4kbits/s speed=0.00786x elapsed=0:02:23.04    \nframe=   29 fps=0.2 q=30.7 size=     256KiB time=00:00:01.12 bitrate=1864.4kbits/s speed=0.00784x elapsed=0:02:23.55    \nframe=   30 fps=0.2 q=32.6 size=     256KiB time=00:00:01.16 bitrate=1797.9kbits/s speed=0.0081x elapsed=0:02:24.07    \nframe=   30 fps=0.2 q=32.6 size=     256KiB time=00:00:01.16 bitrate=1797.9kbits/s speed=0.00807x elapsed=0:02:24.59    \nframe=   30 fps=0.2 q=32.6 size=     256KiB time=00:00:01.16 bitrate=1797.9kbits/s speed=0.00804x elapsed=0:02:25.09    \nframe=   30 fps=0.2 q=32.6 size=     256KiB time=00:00:01.16 bitrate=1797.9kbits/s speed=0.00801x elapsed=0:02:25.61    \nframe=   30 fps=0.2 q=32.6 size=     256KiB time=00:00:01.16 bitrate=1797.9kbits/s speed=0.00798x elapsed=0:02:26.13    \nframe=   30 fps=0.2 q=32.6 size=     256KiB time=00:00:01.16 bitrate=1797.9kbits/s speed=0.00796x elapsed=0:02:26.65    \nframe=   30 fps=0.2 q=32.6 size=     256KiB time=00:00:01.16 bitrate=1797.9kbits/s speed=0.00793x elapsed=0:02:27.16    \nframe=   30 fps=0.2 q=32.6 size=     256KiB time=00:00:01.16 bitrate=1797.9kbits/s speed=0.0079x elapsed=0:02:27.67    \nframe=   31 fps=0.2 q=35.3 size=     256KiB time=00:00:01.20 bitrate=1735.9kbits/s speed=0.00815x elapsed=0:02:28.20    \nframe=   31 fps=0.2 q=35.3 size=     256KiB time=00:00:01.20 bitrate=1735.9kbits/s speed=0.00813x elapsed=0:02:28.71    \nframe=   31 fps=0.2 q=35.3 size=     256KiB time=00:00:01.20 bitrate=1735.9kbits/s speed=0.0081x elapsed=0:02:29.22    \nframe=   31 fps=0.2 q=35.3 size=     256KiB time=00:00:01.20 bitrate=1735.9kbits/s speed=0.00807x elapsed=0:02:29.75    \nframe=   32 fps=0.2 q=35.2 size=     256KiB time=00:00:01.25 bitrate=1678.0kbits/s speed=0.00832x elapsed=0:02:30.28    \nframe=   32 fps=0.2 q=35.2 size=     256KiB time=00:00:01.25 bitrate=1678.0kbits/s speed=0.00829x elapsed=0:02:30.79    \nframe=   33 fps=0.2 q=30.5 size=     256KiB time=00:00:01.29 bitrate=1623.9kbits/s speed=0.00854x elapsed=0:02:31.30    \nframe=   33 fps=0.2 q=30.5 size=     256KiB time=00:00:01.29 bitrate=1623.9kbits/s speed=0.00851x elapsed=0:02:31.82    \nframe=   33 fps=0.2 q=30.5 size=     256KiB time=00:00:01.29 bitrate=1623.9kbits/s speed=0.00848x elapsed=0:02:32.34    \nframe=   34 fps=0.2 q=32.4 size=     256KiB time=00:00:01.33 bitrate=1573.1kbits/s speed=0.00872x elapsed=0:02:32.84    \nframe=   34 fps=0.2 q=32.4 size=     256KiB time=00:00:01.33 bitrate=1573.1kbits/s speed=0.00869x elapsed=0:02:33.36    \nframe=   34 fps=0.2 q=32.4 size=     256KiB time=00:00:01.33 bitrate=1573.1kbits/s speed=0.00866x elapsed=0:02:33.88    \nframe=   34 fps=0.2 q=32.4 size=     256KiB time=00:00:01.33 bitrate=1573.1kbits/s speed=0.00864x elapsed=0:02:34.40    \nframe=   34 fps=0.2 q=32.4 size=     256KiB time=00:00:01.33 bitrate=1573.1kbits/s speed=0.00861x elapsed=0:02:34.92    \nframe=   34 fps=0.2 q=32.4 size=     256KiB time=00:00:01.33 bitrate=1573.1kbits/s speed=0.00858x elapsed=0:02:35.43    \nframe=   35 fps=0.2 q=35.2 size=     256KiB time=00:00:01.37 bitrate=1525.5kbits/s speed=0.00882x elapsed=0:02:35.95    \nframe=   35 fps=0.2 q=35.2 size=     256KiB time=00:00:01.37 bitrate=1525.5kbits/s speed=0.00879x elapsed=0:02:36.47    \nframe=   35 fps=0.2 q=35.2 size=     256KiB time=00:00:01.37 bitrate=1525.5kbits/s speed=0.00876x elapsed=0:02:36.98    \nframe=   35 fps=0.2 q=35.2 size=     256KiB time=00:00:01.37 bitrate=1525.5kbits/s speed=0.00873x elapsed=0:02:37.49    \nframe=   35 fps=0.2 q=35.2 size=     256KiB time=00:00:01.37 bitrate=1525.5kbits/s speed=0.0087x elapsed=0:02:38.01    \nframe=   36 fps=0.2 q=35.4 size=     256KiB time=00:00:01.41 bitrate=1480.6kbits/s speed=0.00894x elapsed=0:02:38.52    \nframe=   36 fps=0.2 q=35.4 size=     256KiB time=00:00:01.41 bitrate=1480.6kbits/s speed=0.00891x elapsed=0:02:39.03    \nframe=   36 fps=0.2 q=35.4 size=     256KiB time=00:00:01.41 bitrate=1480.6kbits/s speed=0.00888x elapsed=0:02:39.55    \nframe=   37 fps=0.2 q=30.5 size=     256KiB time=00:00:01.45 bitrate=1438.3kbits/s speed=0.00911x elapsed=0:02:40.08    \nframe=   37 fps=0.2 q=30.5 size=     256KiB time=00:00:01.45 bitrate=1438.3kbits/s speed=0.00908x elapsed=0:02:40.58    \nframe=   38 fps=0.2 q=32.3 size=     512KiB time=00:00:01.50 bitrate=2796.4kbits/s speed=0.00931x elapsed=0:02:41.11    \nframe=   38 fps=0.2 q=32.3 size=     512KiB time=00:00:01.50 bitrate=2796.4kbits/s speed=0.00928x elapsed=0:02:41.61    \nframe=   38 fps=0.2 q=32.3 size=     512KiB time=00:00:01.50 bitrate=2796.4kbits/s speed=0.00925x elapsed=0:02:42.13    \nframe=   38 fps=0.2 q=32.3 size=     512KiB time=00:00:01.50 bitrate=2796.4kbits/s speed=0.00922x elapsed=0:02:42.64    \nframe=   38 fps=0.2 q=32.3 size=     512KiB time=00:00:01.50 bitrate=2796.4kbits/s speed=0.00919x elapsed=0:02:43.17    \nframe=   38 fps=0.2 q=32.3 size=     512KiB time=00:00:01.50 bitrate=2796.4kbits/s speed=0.00916x elapsed=0:02:43.68    \nframe=   38 fps=0.2 q=32.3 size=     512KiB time=00:00:01.50 bitrate=2796.4kbits/s speed=0.00914x elapsed=0:02:44.20    \nframe=   38 fps=0.2 q=32.3 size=     512KiB time=00:00:01.50 bitrate=2796.4kbits/s speed=0.00911x elapsed=0:02:44.71    \nframe=   38 fps=0.2 q=32.3 size=     512KiB time=00:00:01.50 bitrate=2796.4kbits/s speed=0.00908x elapsed=0:02:45.23    \nframe=   38 fps=0.2 q=32.3 size=     512KiB time=00:00:01.50 bitrate=2796.4kbits/s speed=0.00905x elapsed=0:02:45.76    \nframe=   39 fps=0.2 q=35.1 size=     512KiB time=00:00:01.54 bitrate=2720.9kbits/s speed=0.00927x elapsed=0:02:46.27    \nframe=   39 fps=0.2 q=35.1 size=     512KiB time=00:00:01.54 bitrate=2720.9kbits/s speed=0.00924x elapsed=0:02:46.79    \nframe=   39 fps=0.2 q=35.1 size=     512KiB time=00:00:01.54 bitrate=2720.9kbits/s speed=0.00921x elapsed=0:02:47.30    \nframe=   39 fps=0.2 q=35.1 size=     512KiB time=00:00:01.54 bitrate=2720.9kbits/s speed=0.00919x elapsed=0:02:47.82    \nframe=   39 fps=0.2 q=35.1 size=     512KiB time=00:00:01.54 bitrate=2720.9kbits/s speed=0.00916x elapsed=0:02:48.33    \nframe=   39 fps=0.2 q=35.1 size=     512KiB time=00:00:01.54 bitrate=2720.9kbits/s speed=0.00913x elapsed=0:02:48.85    \nframe=   39 fps=0.2 q=35.1 size=     512KiB time=00:00:01.54 bitrate=2720.9kbits/s speed=0.0091x elapsed=0:02:49.36    \nframe=   39 fps=0.2 q=35.1 size=     512KiB time=00:00:01.54 bitrate=2720.9kbits/s speed=0.00907x elapsed=0:02:49.88    \nframe=   39 fps=0.2 q=35.1 size=     512KiB time=00:00:01.54 bitrate=2720.9kbits/s speed=0.00905x elapsed=0:02:50.39    \nframe=   39 fps=0.2 q=35.1 size=     512KiB time=00:00:01.54 bitrate=2720.9kbits/s speed=0.00902x elapsed=0:02:50.91    \nframe=   39 fps=0.2 q=35.1 size=     512KiB time=00:00:01.54 bitrate=2720.9kbits/s speed=0.00899x elapsed=0:02:51.43    \nframe=   39 fps=0.2 q=35.1 size=     512KiB time=00:00:01.54 bitrate=2720.9kbits/s speed=0.00897x elapsed=0:02:51.96    \nframe=   39 fps=0.2 q=35.1 size=     512KiB time=00:00:01.54 bitrate=2720.9kbits/s speed=0.00894x elapsed=0:02:52.47    \nframe=   39 fps=0.2 q=35.1 size=     512KiB time=00:00:01.54 bitrate=2720.9kbits/s speed=0.00891x elapsed=0:02:52.99    \nframe=   40 fps=0.2 q=35.2 size=     512KiB time=00:00:01.58 bitrate=2649.3kbits/s speed=0.00912x elapsed=0:02:53.51    \nframe=   40 fps=0.2 q=35.2 size=     512KiB time=00:00:01.58 bitrate=2649.3kbits/s speed=0.0091x elapsed=0:02:54.04    \nframe=   40 fps=0.2 q=35.2 size=     512KiB time=00:00:01.58 bitrate=2649.3kbits/s speed=0.00907x elapsed=0:02:54.56    \nframe=   40 fps=0.2 q=35.2 size=     512KiB time=00:00:01.58 bitrate=2649.3kbits/s speed=0.00904x elapsed=0:02:55.07    \nframe=   40 fps=0.2 q=35.2 size=     512KiB time=00:00:01.58 bitrate=2649.3kbits/s speed=0.00902x elapsed=0:02:55.58    \nframe=   40 fps=0.2 q=35.2 size=     512KiB time=00:00:01.58 bitrate=2649.3kbits/s speed=0.00899x elapsed=0:02:56.10    \nframe=   40 fps=0.2 q=35.2 size=     512KiB time=00:00:01.58 bitrate=2649.3kbits/s speed=0.00896x elapsed=0:02:56.61    \nframe=   41 fps=0.2 q=30.6 size=     512KiB time=00:00:01.62 bitrate=2581.3kbits/s speed=0.00917x elapsed=0:02:57.13    \nframe=   41 fps=0.2 q=30.6 size=     512KiB time=00:00:01.62 bitrate=2581.3kbits/s speed=0.00915x elapsed=0:02:57.65    \nframe=   41 fps=0.2 q=30.6 size=     512KiB time=00:00:01.62 bitrate=2581.3kbits/s speed=0.00912x elapsed=0:02:58.16    \nframe=   41 fps=0.2 q=30.6 size=     512KiB time=00:00:01.62 bitrate=2581.3kbits/s speed=0.00909x elapsed=0:02:58.68    \nframe=   41 fps=0.2 q=30.6 size=     512KiB time=00:00:01.62 bitrate=2581.3kbits/s speed=0.00907x elapsed=0:02:59.20    \nframe=   41 fps=0.2 q=30.6 size=     512KiB time=00:00:01.62 bitrate=2581.3kbits/s speed=0.00904x elapsed=0:02:59.71    \nframe=   41 fps=0.2 q=30.6 size=     512KiB time=00:00:01.62 bitrate=2581.3kbits/s speed=0.00902x elapsed=0:03:00.23    \nframe=   41 fps=0.2 q=30.6 size=     512KiB time=00:00:01.62 bitrate=2581.3kbits/s speed=0.00899x elapsed=0:03:00.74    \nframe=   41 fps=0.2 q=30.6 size=     512KiB time=00:00:01.62 bitrate=2581.3kbits/s speed=0.00896x elapsed=0:03:01.27    \nframe=   41 fps=0.2 q=30.6 size=     512KiB time=00:00:01.62 bitrate=2581.3kbits/s speed=0.00894x elapsed=0:03:01.79    \nframe=   41 fps=0.2 q=30.6 size=     512KiB time=00:00:01.62 bitrate=2581.3kbits/s speed=0.00891x elapsed=0:03:02.31    \nframe=   41 fps=0.2 q=30.6 size=     512KiB time=00:00:01.62 bitrate=2581.3kbits/s speed=0.00889x elapsed=0:03:02.83    \nframe=   42 fps=0.2 q=31.8 size=     512KiB time=00:00:01.66 bitrate=2516.8kbits/s speed=0.00909x elapsed=0:03:03.35    \nframe=   42 fps=0.2 q=31.8 size=     512KiB time=00:00:01.66 bitrate=2516.8kbits/s speed=0.00906x elapsed=0:03:03.86    \nframe=   42 fps=0.2 q=31.8 size=     512KiB time=00:00:01.66 bitrate=2516.8kbits/s speed=0.00904x elapsed=0:03:04.38    \nframe=   42 fps=0.2 q=31.8 size=     512KiB time=00:00:01.66 bitrate=2516.8kbits/s speed=0.00901x elapsed=0:03:04.90    \nframe=   42 fps=0.2 q=31.8 size=     512KiB time=00:00:01.66 bitrate=2516.8kbits/s speed=0.00899x elapsed=0:03:05.43    \nframe=   42 fps=0.2 q=31.8 size=     512KiB time=00:00:01.66 bitrate=2516.8kbits/s speed=0.00896x elapsed=0:03:05.95    \nframe=   42 fps=0.2 q=31.8 size=     512KiB time=00:00:01.66 bitrate=2516.8kbits/s speed=0.00894x elapsed=0:03:06.47    \nframe=   42 fps=0.2 q=31.8 size=     512KiB time=00:00:01.66 bitrate=2516.8kbits/s speed=0.00891x elapsed=0:03:06.99    \nframe=   42 fps=0.2 q=31.8 size=     512KiB time=00:00:01.66 bitrate=2516.8kbits/s speed=0.00889x elapsed=0:03:07.52    \nframe=   42 fps=0.2 q=31.8 size=     512KiB time=00:00:01.66 bitrate=2516.8kbits/s speed=0.00886x elapsed=0:03:08.05    \nframe=   42 fps=0.2 q=31.8 size=     512KiB time=00:00:01.66 bitrate=2516.8kbits/s speed=0.00884x elapsed=0:03:08.58    \nframe=   42 fps=0.2 q=31.8 size=     512KiB time=00:00:01.66 bitrate=2516.8kbits/s speed=0.00881x elapsed=0:03:09.11    \nframe=   42 fps=0.2 q=31.8 size=     512KiB time=00:00:01.66 bitrate=2516.8kbits/s speed=0.00879x elapsed=0:03:09.61    \nframe=   42 fps=0.2 q=31.8 size=     512KiB time=00:00:01.66 bitrate=2516.8kbits/s speed=0.00877x elapsed=0:03:10.13    \nframe=   42 fps=0.2 q=31.8 size=     512KiB time=00:00:01.66 bitrate=2516.8kbits/s speed=0.00874x elapsed=0:03:10.66    \nframe=   42 fps=0.2 q=31.8 size=     512KiB time=00:00:01.66 bitrate=2516.8kbits/s speed=0.00872x elapsed=0:03:11.18    \nframe=   42 fps=0.2 q=31.8 size=     512KiB time=00:00:01.66 bitrate=2516.8kbits/s speed=0.00869x elapsed=0:03:11.69    \nframe=   42 fps=0.2 q=31.8 size=     512KiB time=00:00:01.66 bitrate=2516.8kbits/s speed=0.00867x elapsed=0:03:12.21    \nframe=   42 fps=0.2 q=31.8 size=     512KiB time=00:00:01.66 bitrate=2516.8kbits/s speed=0.00865x elapsed=0:03:12.73    \nframe=   42 fps=0.2 q=31.8 size=     512KiB time=00:00:01.66 bitrate=2516.8kbits/s speed=0.00862x elapsed=0:03:13.24    \nframe=   42 fps=0.2 q=31.8 size=     512KiB time=00:00:01.66 bitrate=2516.8kbits/s speed=0.0086x elapsed=0:03:13.76    \nframe=   43 fps=0.2 q=35.1 size=     512KiB time=00:00:01.70 bitrate=2455.4kbits/s speed=0.00879x elapsed=0:03:14.28    \nframe=   43 fps=0.2 q=35.1 size=     512KiB time=00:00:01.70 bitrate=2455.4kbits/s speed=0.00877x elapsed=0:03:14.79    \nframe=   43 fps=0.2 q=35.1 size=     512KiB time=00:00:01.70 bitrate=2455.4kbits/s speed=0.00875x elapsed=0:03:15.31    \nframe=   43 fps=0.2 q=35.1 size=     512KiB time=00:00:01.70 bitrate=2455.4kbits/s speed=0.00872x elapsed=0:03:15.82    \nframe=   43 fps=0.2 q=35.1 size=     512KiB time=00:00:01.70 bitrate=2455.4kbits/s speed=0.0087x elapsed=0:03:16.33    \nframe=   43 fps=0.2 q=35.1 size=     512KiB time=00:00:01.70 bitrate=2455.4kbits/s speed=0.00868x elapsed=0:03:16.85    \nframe=   43 fps=0.2 q=35.1 size=     512KiB time=00:00:01.70 bitrate=2455.4kbits/s speed=0.00866x elapsed=0:03:17.37    \nframe=   43 fps=0.2 q=35.1 size=     512KiB time=00:00:01.70 bitrate=2455.4kbits/s speed=0.00863x elapsed=0:03:17.88    \nframe=   44 fps=0.2 q=35.0 size=     512KiB time=00:00:01.75 bitrate=2396.9kbits/s speed=0.00882x elapsed=0:03:18.39    \nframe=   44 fps=0.2 q=35.0 size=     512KiB time=00:00:01.75 bitrate=2396.9kbits/s speed=0.0088x elapsed=0:03:18.91    \nframe=   44 fps=0.2 q=35.0 size=     512KiB time=00:00:01.75 bitrate=2396.9kbits/s speed=0.00877x elapsed=0:03:19.43    \nframe=   44 fps=0.2 q=35.0 size=     512KiB time=00:00:01.75 bitrate=2396.9kbits/s speed=0.00875x elapsed=0:03:19.95    \nframe=   44 fps=0.2 q=35.0 size=     512KiB time=00:00:01.75 bitrate=2396.9kbits/s speed=0.00873x elapsed=0:03:20.46    \nframe=   44 fps=0.2 q=35.0 size=     512KiB time=00:00:01.75 bitrate=2396.9kbits/s speed=0.00871x elapsed=0:03:20.98    \nframe=   44 fps=0.2 q=35.0 size=     512KiB time=00:00:01.75 bitrate=2396.9kbits/s speed=0.00868x elapsed=0:03:21.51    \nframe=   44 fps=0.2 q=35.0 size=     512KiB time=00:00:01.75 bitrate=2396.9kbits/s speed=0.00866x elapsed=0:03:22.02    \nframe=   44 fps=0.2 q=35.0 size=     512KiB time=00:00:01.75 bitrate=2396.9kbits/s speed=0.00864x elapsed=0:03:22.54    \nframe=   44 fps=0.2 q=35.0 size=     512KiB time=00:00:01.75 bitrate=2396.9kbits/s speed=0.00862x elapsed=0:03:23.06    \nframe=   45 fps=0.2 q=30.4 size=     512KiB time=00:00:01.79 bitrate=2341.2kbits/s speed=0.0088x elapsed=0:03:23.59    \nframe=   45 fps=0.2 q=30.4 size=     512KiB time=00:00:01.79 bitrate=2341.2kbits/s speed=0.00878x elapsed=0:03:24.09    \nframe=   45 fps=0.2 q=30.4 size=     512KiB time=00:00:01.79 bitrate=2341.2kbits/s speed=0.00876x elapsed=0:03:24.62    \nframe=   45 fps=0.2 q=30.4 size=     512KiB time=00:00:01.79 bitrate=2341.2kbits/s speed=0.00873x elapsed=0:03:25.13    \nframe=   45 fps=0.2 q=30.4 size=     512KiB time=00:00:01.79 bitrate=2341.2kbits/s speed=0.00871x elapsed=0:03:25.67    \nframe=   45 fps=0.2 q=30.4 size=     512KiB time=00:00:01.79 bitrate=2341.2kbits/s speed=0.00869x elapsed=0:03:26.17    \nframe=   46 fps=0.2 q=32.2 size=     512KiB time=00:00:01.79 bitrate=2341.2kbits/s speed=0.00867x elapsed=0:03:26.70    \nframe=   46 fps=0.2 q=32.2 size=     512KiB time=00:00:01.83 bitrate=2288.0kbits/s speed=0.00885x elapsed=0:03:27.20    \nframe=   46 fps=0.2 q=32.2 size=     512KiB time=00:00:01.83 bitrate=2288.0kbits/s speed=0.00883x elapsed=0:03:27.73    \nframe=   46 fps=0.2 q=32.2 size=     512KiB time=00:00:01.83 bitrate=2288.0kbits/s speed=0.0088x elapsed=0:03:28.24    \nframe=   46 fps=0.2 q=32.2 size=     512KiB time=00:00:01.83 bitrate=2288.0kbits/s speed=0.00878x elapsed=0:03:28.76    \nframe=   46 fps=0.2 q=32.2 size=     512KiB time=00:00:01.83 bitrate=2288.0kbits/s speed=0.00876x elapsed=0:03:29.29    \nframe=   46 fps=0.2 q=32.2 size=     512KiB time=00:00:01.83 bitrate=2288.0kbits/s speed=0.00874x elapsed=0:03:29.81    \nframe=   46 fps=0.2 q=32.2 size=     512KiB time=00:00:01.83 bitrate=2288.0kbits/s speed=0.00872x elapsed=0:03:30.31    \nframe=   46 fps=0.2 q=32.2 size=     512KiB time=00:00:01.83 bitrate=2288.0kbits/s speed=0.0087x elapsed=0:03:30.84    \nframe=   46 fps=0.2 q=32.2 size=     512KiB time=00:00:01.83 bitrate=2288.0kbits/s speed=0.00867x elapsed=0:03:31.35    \nframe=   46 fps=0.2 q=32.2 size=     512KiB time=00:00:01.83 bitrate=2288.0kbits/s speed=0.00865x elapsed=0:03:31.86    \nframe=   46 fps=0.2 q=32.2 size=     512KiB time=00:00:01.83 bitrate=2288.0kbits/s speed=0.00863x elapsed=0:03:32.39    \nframe=   46 fps=0.2 q=32.2 size=     512KiB time=00:00:01.83 bitrate=2288.0kbits/s speed=0.00861x elapsed=0:03:32.90    \nframe=   46 fps=0.2 q=32.2 size=     512KiB time=00:00:01.83 bitrate=2288.0kbits/s speed=0.00859x elapsed=0:03:33.41    \nframe=   46 fps=0.2 q=32.2 size=     512KiB time=00:00:01.83 bitrate=2288.0kbits/s speed=0.00857x elapsed=0:03:33.93    \nframe=   47 fps=0.2 q=34.9 size=     512KiB time=00:00:01.87 bitrate=2237.1kbits/s speed=0.00874x elapsed=0:03:34.44    \nframe=   47 fps=0.2 q=34.9 size=     512KiB time=00:00:01.87 bitrate=2237.1kbits/s speed=0.00872x elapsed=0:03:34.96    \nframe=   47 fps=0.2 q=34.9 size=     512KiB time=00:00:01.87 bitrate=2237.1kbits/s speed=0.0087x elapsed=0:03:35.48    \nframe=   47 fps=0.2 q=34.9 size=     512KiB time=00:00:01.87 bitrate=2237.1kbits/s speed=0.00868x elapsed=0:03:35.99    \nframe=   48 fps=0.2 q=35.0 size=     512KiB time=00:00:01.91 bitrate=2188.5kbits/s speed=0.00885x elapsed=0:03:36.51    \nframe=   48 fps=0.2 q=35.0 size=     512KiB time=00:00:01.91 bitrate=2188.5kbits/s speed=0.00883x elapsed=0:03:37.02    \nframe=   48 fps=0.2 q=35.0 size=     512KiB time=00:00:01.91 bitrate=2188.5kbits/s speed=0.00881x elapsed=0:03:37.53    \nframe=   48 fps=0.2 q=35.0 size=     512KiB time=00:00:01.91 bitrate=2188.5kbits/s speed=0.00879x elapsed=0:03:38.06    \nframe=   48 fps=0.2 q=35.0 size=     512KiB time=00:00:01.91 bitrate=2188.5kbits/s speed=0.00877x elapsed=0:03:38.57    \nframe=   48 fps=0.2 q=35.0 size=     512KiB time=00:00:01.91 bitrate=2188.5kbits/s speed=0.00875x elapsed=0:03:39.09    \nframe=   48 fps=0.2 q=35.0 size=     512KiB time=00:00:01.91 bitrate=2188.5kbits/s speed=0.00873x elapsed=0:03:39.60    \nframe=   48 fps=0.2 q=35.0 size=     512KiB time=00:00:01.91 bitrate=2188.5kbits/s speed=0.00871x elapsed=0:03:40.12    \nframe=   48 fps=0.2 q=35.0 size=     512KiB time=00:00:01.91 bitrate=2188.5kbits/s speed=0.00869x elapsed=0:03:40.63    \nframe=   49 fps=0.2 q=30.5 size=     512KiB time=00:00:01.95 bitrate=2142.0kbits/s speed=0.00885x elapsed=0:03:41.15    \nframe=   50 fps=0.2 q=32.2 size=     512KiB time=00:00:01.95 bitrate=2142.0kbits/s speed=0.00883x elapsed=0:03:41.73    \nframe=   50 fps=0.2 q=32.2 size=     512KiB time=00:00:02.00 bitrate=2097.3kbits/s speed=0.009x elapsed=0:03:42.31    \nframe=   50 fps=0.2 q=32.2 size=     512KiB time=00:00:02.00 bitrate=2097.3kbits/s speed=0.00898x elapsed=0:03:42.82    \nframe=   50 fps=0.2 q=32.2 size=     512KiB time=00:00:02.00 bitrate=2097.3kbits/s speed=0.00895x elapsed=0:03:43.34    \nframe=   50 fps=0.2 q=32.2 size=     512KiB time=00:00:02.00 bitrate=2097.3kbits/s speed=0.00893x elapsed=0:03:43.87    \nframe=   50 fps=0.2 q=32.2 size=     512KiB time=00:00:02.00 bitrate=2097.3kbits/s speed=0.00891x elapsed=0:03:44.40    \nframe=   50 fps=0.2 q=32.2 size=     512KiB time=00:00:02.00 bitrate=2097.3kbits/s speed=0.00889x elapsed=0:03:44.94    \nframe=   50 fps=0.2 q=32.2 size=     512KiB time=00:00:02.00 bitrate=2097.3kbits/s speed=0.00887x elapsed=0:03:45.46    \nframe=   50 fps=0.2 q=32.2 size=     512KiB time=00:00:02.00 bitrate=2097.3kbits/s speed=0.00885x elapsed=0:03:45.98    \nframe=   50 fps=0.2 q=32.2 size=     512KiB time=00:00:02.00 bitrate=2097.3kbits/s speed=0.00883x elapsed=0:03:46.50    \nframe=   51 fps=0.2 q=35.0 size=     512KiB time=00:00:02.04 bitrate=2054.5kbits/s speed=0.00899x elapsed=0:03:47.02    \nframe=   51 fps=0.2 q=35.0 size=     512KiB time=00:00:02.04 bitrate=2054.5kbits/s speed=0.00897x elapsed=0:03:47.57    \nframe=   51 fps=0.2 q=35.0 size=     512KiB time=00:00:02.04 bitrate=2054.5kbits/s speed=0.00895x elapsed=0:03:48.09    \nframe=   51 fps=0.2 q=35.0 size=     512KiB time=00:00:02.04 bitrate=2054.5kbits/s speed=0.00893x elapsed=0:03:48.66    \nframe=   51 fps=0.2 q=35.0 size=     512KiB time=00:00:02.04 bitrate=2054.5kbits/s speed=0.00891x elapsed=0:03:49.20    \nframe=   51 fps=0.2 q=35.0 size=     512KiB time=00:00:02.04 bitrate=2054.5kbits/s speed=0.00889x elapsed=0:03:49.76    \nframe=   51 fps=0.2 q=35.0 size=     512KiB time=00:00:02.04 bitrate=2054.5kbits/s speed=0.00887x elapsed=0:03:50.29    \nframe=   51 fps=0.2 q=35.0 size=     512KiB time=00:00:02.04 bitrate=2054.5kbits/s speed=0.00884x elapsed=0:03:50.83    \nframe=   51 fps=0.2 q=35.0 size=     512KiB time=00:00:02.04 bitrate=2054.5kbits/s speed=0.00882x elapsed=0:03:51.35    \nframe=   51 fps=0.2 q=35.0 size=     512KiB time=00:00:02.04 bitrate=2054.5kbits/s speed=0.0088x elapsed=0:03:51.89    \nframe=   52 fps=0.2 q=35.0 size=     512KiB time=00:00:02.08 bitrate=2013.4kbits/s speed=0.00896x elapsed=0:03:52.41    \nframe=   52 fps=0.2 q=35.0 size=     512KiB time=00:00:02.08 bitrate=2013.4kbits/s speed=0.00894x elapsed=0:03:52.93    \nframe=   52 fps=0.2 q=35.0 size=     512KiB time=00:00:02.08 bitrate=2013.4kbits/s speed=0.00892x elapsed=0:03:53.44    \nframe=   53 fps=0.2 q=30.6 size=     512KiB time=00:00:02.12 bitrate=1974.0kbits/s speed=0.00908x elapsed=0:03:53.96    \nframe=   53 fps=0.2 q=30.6 size=     512KiB time=00:00:02.12 bitrate=1974.0kbits/s speed=0.00906x elapsed=0:03:54.48    \nframe=   53 fps=0.2 q=30.6 size=     512KiB time=00:00:02.12 bitrate=1974.0kbits/s speed=0.00904x elapsed=0:03:55.01    \nframe=   53 fps=0.2 q=30.6 size=     512KiB time=00:00:02.12 bitrate=1974.0kbits/s speed=0.00902x elapsed=0:03:55.53    \nframe=   54 fps=0.2 q=32.3 size=     768KiB time=00:00:02.16 bitrate=2903.9kbits/s speed=0.00918x elapsed=0:03:56.05    \nframe=   54 fps=0.2 q=32.3 size=     768KiB time=00:00:02.16 bitrate=2903.9kbits/s speed=0.00916x elapsed=0:03:56.57    \nframe=   54 fps=0.2 q=32.3 size=     768KiB time=00:00:02.16 bitrate=2903.9kbits/s speed=0.00914x elapsed=0:03:57.11    \nframe=   54 fps=0.2 q=32.3 size=     768KiB time=00:00:02.16 bitrate=2903.9kbits/s speed=0.00912x elapsed=0:03:57.63    \nframe=   54 fps=0.2 q=32.3 size=     768KiB time=00:00:02.16 bitrate=2903.9kbits/s speed=0.0091x elapsed=0:03:58.19    \nframe=   55 fps=0.2 q=35.0 size=     768KiB time=00:00:02.20 bitrate=2849.1kbits/s speed=0.00925x elapsed=0:03:58.77    \nframe=   55 fps=0.2 q=35.0 size=     768KiB time=00:00:02.20 bitrate=2849.1kbits/s speed=0.00923x elapsed=0:03:59.31    \nframe=   55 fps=0.2 q=35.0 size=     768KiB time=00:00:02.20 bitrate=2849.1kbits/s speed=0.00921x elapsed=0:03:59.85    \nframe=   55 fps=0.2 q=35.0 size=     768KiB time=00:00:02.20 bitrate=2849.1kbits/s speed=0.00918x elapsed=0:04:00.42    \nframe=   55 fps=0.2 q=35.0 size=     768KiB time=00:00:02.20 bitrate=2849.1kbits/s speed=0.00917x elapsed=0:04:00.94    \nframe=   55 fps=0.2 q=35.0 size=     768KiB time=00:00:02.20 bitrate=2849.1kbits/s speed=0.00915x elapsed=0:04:01.46    \nframe=   55 fps=0.2 q=35.0 size=     768KiB time=00:00:02.20 bitrate=2849.1kbits/s speed=0.00913x elapsed=0:04:01.98    \nframe=   55 fps=0.2 q=35.0 size=     768KiB time=00:00:02.20 bitrate=2849.1kbits/s speed=0.00911x elapsed=0:04:02.52    \nframe=   56 fps=0.2 q=34.7 size=     768KiB time=00:00:02.25 bitrate=2796.4kbits/s speed=0.00926x elapsed=0:04:03.07    \nframe=   56 fps=0.2 q=34.7 size=     768KiB time=00:00:02.25 bitrate=2796.4kbits/s speed=0.00924x elapsed=0:04:03.62    \nframe=   56 fps=0.2 q=34.7 size=     768KiB time=00:00:02.25 bitrate=2796.4kbits/s speed=0.00921x elapsed=0:04:04.18    \nframe=   56 fps=0.2 q=34.7 size=     768KiB time=00:00:02.25 bitrate=2796.4kbits/s speed=0.0092x elapsed=0:04:04.69    \nframe=   57 fps=0.2 q=30.5 size=     768KiB time=00:00:02.25 bitrate=2796.4kbits/s speed=0.00918x elapsed=0:04:05.21    \nframe=   57 fps=0.2 q=30.5 size=     768KiB time=00:00:02.29 bitrate=2745.5kbits/s speed=0.00932x elapsed=0:04:05.77    \nframe=   57 fps=0.2 q=30.5 size=     768KiB time=00:00:02.29 bitrate=2745.5kbits/s speed=0.0093x elapsed=0:04:06.31    \nframe=   57 fps=0.2 q=30.5 size=     768KiB time=00:00:02.29 bitrate=2745.5kbits/s speed=0.00928x elapsed=0:04:06.82    \nframe=   58 fps=0.2 q=32.2 size=     768KiB time=00:00:02.33 bitrate=2696.5kbits/s speed=0.00943x elapsed=0:04:07.36    \nframe=   58 fps=0.2 q=32.2 size=     768KiB time=00:00:02.33 bitrate=2696.5kbits/s speed=0.00941x elapsed=0:04:07.92    \nframe=   58 fps=0.2 q=32.2 size=     768KiB time=00:00:02.33 bitrate=2696.5kbits/s speed=0.00939x elapsed=0:04:08.46    \nframe=   58 fps=0.2 q=32.2 size=     768KiB time=00:00:02.33 bitrate=2696.5kbits/s speed=0.00937x elapsed=0:04:09.02    \nframe=   58 fps=0.2 q=32.2 size=     768KiB time=00:00:02.33 bitrate=2696.5kbits/s speed=0.00935x elapsed=0:04:09.57    \nframe=   58 fps=0.2 q=32.2 size=     768KiB time=00:00:02.33 bitrate=2696.5kbits/s speed=0.00933x elapsed=0:04:10.12    \nframe=   58 fps=0.2 q=32.2 size=     768KiB time=00:00:02.33 bitrate=2696.5kbits/s speed=0.00931x elapsed=0:04:10.63    \nframe=   58 fps=0.2 q=32.2 size=     768KiB time=00:00:02.33 bitrate=2696.5kbits/s speed=0.00929x elapsed=0:04:11.15    \nframe=   58 fps=0.2 q=32.2 size=     768KiB time=00:00:02.33 bitrate=2696.5kbits/s speed=0.00927x elapsed=0:04:11.66    \nframe=   58 fps=0.2 q=32.2 size=     768KiB time=00:00:02.33 bitrate=2696.5kbits/s speed=0.00925x elapsed=0:04:12.22    \nframe=   59 fps=0.2 q=34.7 size=     768KiB time=00:00:02.37 bitrate=2649.2kbits/s speed=0.0094x elapsed=0:04:12.75    \nframe=   59 fps=0.2 q=34.7 size=     768KiB time=00:00:02.37 bitrate=2649.2kbits/s speed=0.00938x elapsed=0:04:13.28    \nframe=   59 fps=0.2 q=34.7 size=     768KiB time=00:00:02.37 bitrate=2649.2kbits/s speed=0.00936x elapsed=0:04:13.84    \nframe=   59 fps=0.2 q=34.7 size=     768KiB time=00:00:02.37 bitrate=2649.2kbits/s speed=0.00934x elapsed=0:04:14.38    \nframe=   59 fps=0.2 q=34.7 size=     768KiB time=00:00:02.37 bitrate=2649.2kbits/s speed=0.00932x elapsed=0:04:14.91    \nframe=   60 fps=0.2 q=35.0 size=     768KiB time=00:00:02.41 bitrate=2603.5kbits/s speed=0.00946x elapsed=0:04:15.42    \nframe=   60 fps=0.2 q=35.0 size=     768KiB time=00:00:02.41 bitrate=2603.5kbits/s speed=0.00944x elapsed=0:04:15.95    \nframe=   61 fps=0.2 q=30.1 size=     768KiB time=00:00:02.45 bitrate=2559.4kbits/s speed=0.00958x elapsed=0:04:16.51    \nframe=   61 fps=0.2 q=30.1 size=     768KiB time=00:00:02.45 bitrate=2559.4kbits/s speed=0.00956x elapsed=0:04:17.04    \nframe=   62 fps=0.2 q=32.1 size=     768KiB time=00:00:02.50 bitrate=2516.7kbits/s speed=0.00971x elapsed=0:04:17.59    \nframe=   62 fps=0.2 q=32.1 size=     768KiB time=00:00:02.50 bitrate=2516.7kbits/s speed=0.00968x elapsed=0:04:18.15    \nframe=   63 fps=0.2 q=34.8 size=     768KiB time=00:00:02.54 bitrate=2475.5kbits/s speed=0.00982x elapsed=0:04:18.72    \nframe=   63 fps=0.2 q=34.8 size=     768KiB time=00:00:02.54 bitrate=2475.5kbits/s speed=0.0098x elapsed=0:04:19.24    \nframe=   64 fps=0.2 q=34.7 size=     768KiB time=00:00:02.58 bitrate=2435.5kbits/s speed=0.00995x elapsed=0:04:19.75    \nframe=   64 fps=0.2 q=34.7 size=     768KiB time=00:00:02.58 bitrate=2435.5kbits/s speed=0.00992x elapsed=0:04:20.28    \nframe=   66 fps=0.3 q=32.1 size=     768KiB time=00:00:02.66 bitrate=2359.4kbits/s speed=0.0102x elapsed=0:04:20.81    \nframe=   66 fps=0.3 q=32.1 size=     768KiB time=00:00:02.66 bitrate=2359.4kbits/s speed=0.0102x elapsed=0:04:21.32    \nframe=   67 fps=0.3 q=34.8 size=     768KiB time=00:00:02.70 bitrate=2323.1kbits/s speed=0.0103x elapsed=0:04:21.84    \nframe=   67 fps=0.3 q=34.8 size=     768KiB time=00:00:02.70 bitrate=2323.1kbits/s speed=0.0103x elapsed=0:04:22.35    \nframe=   68 fps=0.3 q=34.8 size=     768KiB time=00:00:02.75 bitrate=2287.9kbits/s speed=0.0105x elapsed=0:04:22.88    \nframe=   68 fps=0.3 q=34.8 size=     768KiB time=00:00:02.75 bitrate=2287.9kbits/s speed=0.0104x elapsed=0:04:23.41    \nframe=   69 fps=0.3 q=30.1 size=     768KiB time=00:00:02.79 bitrate=2253.8kbits/s speed=0.0106x elapsed=0:04:23.92    \nframe=   70 fps=0.3 q=32.2 size=     768KiB time=00:00:02.83 bitrate=2220.6kbits/s speed=0.0107x elapsed=0:04:24.45    \nframe=   70 fps=0.3 q=32.2 size=     768KiB time=00:00:02.83 bitrate=2220.6kbits/s speed=0.0107x elapsed=0:04:24.96    \nframe=   70 fps=0.3 q=32.2 size=     768KiB time=00:00:02.83 bitrate=2220.6kbits/s speed=0.0107x elapsed=0:04:25.49    \nframe=   71 fps=0.3 q=34.5 size=    1024KiB time=00:00:02.87 bitrate=2917.9kbits/s speed=0.0108x elapsed=0:04:26.01    \nframe=   72 fps=0.3 q=34.7 size=    1024KiB time=00:00:02.91 bitrate=2876.2kbits/s speed=0.0109x elapsed=0:04:26.52    \nframe=   72 fps=0.3 q=34.7 size=    1024KiB time=00:00:02.91 bitrate=2876.2kbits/s speed=0.0109x elapsed=0:04:27.04    \nframe=   73 fps=0.3 q=30.1 size=    1024KiB time=00:00:02.95 bitrate=2835.7kbits/s speed=0.0111x elapsed=0:04:27.55    \nframe=   74 fps=0.3 q=32.0 size=    1024KiB time=00:00:03.00 bitrate=2796.3kbits/s speed=0.0112x elapsed=0:04:28.07    \nframe=   74 fps=0.3 q=32.0 size=    1024KiB time=00:00:03.00 bitrate=2796.3kbits/s speed=0.0112x elapsed=0:04:28.59    \nframe=   75 fps=0.3 q=34.6 size=    1024KiB time=00:00:03.04 bitrate=2758.0kbits/s speed=0.0113x elapsed=0:04:29.09    \nframe=   75 fps=0.3 q=34.6 size=    1024KiB time=00:00:03.04 bitrate=2758.0kbits/s speed=0.0113x elapsed=0:04:29.62    \nframe=   76 fps=0.3 q=34.5 size=    1024KiB time=00:00:03.08 bitrate=2720.7kbits/s speed=0.0114x elapsed=0:04:30.15    \nframe=   76 fps=0.3 q=34.5 size=    1024KiB time=00:00:03.08 bitrate=2720.7kbits/s speed=0.0114x elapsed=0:04:30.66    \nframe=   78 fps=0.3 q=31.8 size=    1024KiB time=00:00:03.16 bitrate=2649.1kbits/s speed=0.0117x elapsed=0:04:31.18    \nframe=   78 fps=0.3 q=31.8 size=    1024KiB time=00:00:03.16 bitrate=2649.1kbits/s speed=0.0117x elapsed=0:04:31.69    \nframe=   78 fps=0.3 q=31.8 size=    1024KiB time=00:00:03.16 bitrate=2649.1kbits/s speed=0.0116x elapsed=0:04:32.21    \nframe=   79 fps=0.3 q=34.5 size=    1024KiB time=00:00:03.20 bitrate=2614.7kbits/s speed=0.0118x elapsed=0:04:32.72    \nframe=   80 fps=0.3 q=34.4 size=    1024KiB time=00:00:03.25 bitrate=2581.2kbits/s speed=0.0119x elapsed=0:04:33.25    \nframe=   80 fps=0.3 q=34.4 size=    1024KiB time=00:00:03.25 bitrate=2581.2kbits/s speed=0.0119x elapsed=0:04:33.77    \nframe=   81 fps=0.3 q=29.7 size=    1024KiB time=00:00:03.29 bitrate=2548.5kbits/s speed=0.012x elapsed=0:04:34.28    \nframe=   82 fps=0.3 q=31.7 size=    1024KiB time=00:00:03.33 bitrate=2516.7kbits/s speed=0.0121x elapsed=0:04:34.80    \nframe=   82 fps=0.3 q=31.7 size=    1024KiB time=00:00:03.33 bitrate=2516.7kbits/s speed=0.0121x elapsed=0:04:35.33    \nframe=   82 fps=0.3 q=31.7 size=    1024KiB time=00:00:03.33 bitrate=2516.7kbits/s speed=0.0121x elapsed=0:04:35.84    \nframe=   83 fps=0.3 q=34.3 size=    1024KiB time=00:00:03.37 bitrate=2485.6kbits/s speed=0.0122x elapsed=0:04:36.35    \nframe=   84 fps=0.3 q=34.5 size=    1024KiB time=00:00:03.41 bitrate=2455.3kbits/s speed=0.0123x elapsed=0:04:36.87    \nframe=   84 fps=0.3 q=34.5 size=    1024KiB time=00:00:03.41 bitrate=2455.3kbits/s speed=0.0123x elapsed=0:04:37.39    \nframe=   84 fps=0.3 q=34.5 size=    1024KiB time=00:00:03.41 bitrate=2455.3kbits/s speed=0.0123x elapsed=0:04:37.89    \nframe=   85 fps=0.3 q=29.5 size=    1024KiB time=00:00:03.45 bitrate=2425.7kbits/s speed=0.0124x elapsed=0:04:38.42    \nframe=   86 fps=0.3 q=32.9 size=    1024KiB time=00:00:03.50 bitrate=2396.8kbits/s speed=0.0125x elapsed=0:04:38.94    \nframe=   86 fps=0.3 q=32.9 size=    1024KiB time=00:00:03.50 bitrate=2396.8kbits/s speed=0.0125x elapsed=0:04:39.47    \nframe=   87 fps=0.3 q=34.3 size=    1024KiB time=00:00:03.54 bitrate=2368.6kbits/s speed=0.0126x elapsed=0:04:40.00    \nframe=   87 fps=0.3 q=34.3 size=    1024KiB time=00:00:03.54 bitrate=2368.6kbits/s speed=0.0126x elapsed=0:04:40.50    \nframe=   88 fps=0.3 q=34.1 size=    1280KiB time=00:00:03.58 bitrate=2926.4kbits/s speed=0.0128x elapsed=0:04:41.02    \nframe=   88 fps=0.3 q=34.1 size=    1280KiB time=00:00:03.58 bitrate=2926.4kbits/s speed=0.0127x elapsed=0:04:41.55    \nframe=   89 fps=0.3 q=34.1 size=    1280KiB time=00:00:03.62 bitrate=2892.7kbits/s speed=0.0129x elapsed=0:04:42.07    \nframe=   89 fps=0.3 q=34.1 size=    1280KiB time=00:00:03.62 bitrate=2892.7kbits/s speed=0.0128x elapsed=0:04:42.58    \nframe=   90 fps=0.3 q=29.4 size=    1280KiB time=00:00:03.66 bitrate=2859.8kbits/s speed=0.013x elapsed=0:04:43.10    \nframe=   91 fps=0.3 q=29.7 size=    1280KiB time=00:00:03.70 bitrate=2827.7kbits/s speed=0.0131x elapsed=0:04:43.62    \nframe=   91 fps=0.3 q=29.7 size=    1280KiB time=00:00:03.70 bitrate=2827.7kbits/s speed=0.0131x elapsed=0:04:44.13    \nframe=   92 fps=0.3 q=34.4 size=    1280KiB time=00:00:03.75 bitrate=2796.3kbits/s speed=0.0132x elapsed=0:04:44.65    \nframe=   92 fps=0.3 q=34.4 size=    1280KiB time=00:00:03.75 bitrate=2796.3kbits/s speed=0.0132x elapsed=0:04:45.16    \nframe=   93 fps=0.3 q=34.3 size=    1280KiB time=00:00:03.79 bitrate=2765.6kbits/s speed=0.0133x elapsed=0:04:45.68    \nframe=   93 fps=0.3 q=34.3 size=    1280KiB time=00:00:03.79 bitrate=2765.6kbits/s speed=0.0132x elapsed=0:04:46.19    \nframe=   94 fps=0.3 q=34.6 size=    1280KiB time=00:00:03.83 bitrate=2735.5kbits/s speed=0.0134x elapsed=0:04:46.72    \nframe=   94 fps=0.3 q=34.6 size=    1280KiB time=00:00:03.83 bitrate=2735.5kbits/s speed=0.0133x elapsed=0:04:47.23    \nframe=   95 fps=0.3 q=29.9 size=    1280KiB time=00:00:03.87 bitrate=2706.1kbits/s speed=0.0135x elapsed=0:04:47.76    \nframe=   96 fps=0.3 q=32.1 size=    1280KiB time=00:00:03.91 bitrate=2677.3kbits/s speed=0.0136x elapsed=0:04:48.28    \nframe=   96 fps=0.3 q=32.1 size=    1280KiB time=00:00:03.91 bitrate=2677.3kbits/s speed=0.0136x elapsed=0:04:48.78    \nframe=   97 fps=0.3 q=34.4 size=    1280KiB time=00:00:03.95 bitrate=2649.1kbits/s speed=0.0137x elapsed=0:04:49.31    \nframe=   97 fps=0.3 q=34.4 size=    1280KiB time=00:00:03.95 bitrate=2649.1kbits/s speed=0.0137x elapsed=0:04:49.82    \nframe=   98 fps=0.3 q=34.5 size=    1280KiB time=00:00:04.00 bitrate=2621.5kbits/s speed=0.0138x elapsed=0:04:50.33    \nframe=   99 fps=0.3 q=29.8 size=    1280KiB time=00:00:04.04 bitrate=2594.5kbits/s speed=0.0139x elapsed=0:04:50.85    \nframe=  100 fps=0.3 q=32.0 size=    1280KiB time=00:00:04.08 bitrate=2568.0kbits/s speed=0.014x elapsed=0:04:51.36    \nframe=  100 fps=0.3 q=32.0 size=    1280KiB time=00:00:04.08 bitrate=2568.0kbits/s speed=0.014x elapsed=0:04:51.89    \nframe=  101 fps=0.3 q=34.2 size=    1280KiB time=00:00:04.12 bitrate=2542.1kbits/s speed=0.0141x elapsed=0:04:52.40    \nframe=  101 fps=0.3 q=34.2 size=    1280KiB time=00:00:04.12 bitrate=2542.1kbits/s speed=0.0141x elapsed=0:04:52.92    \nframe=  102 fps=0.3 q=34.6 size=    1280KiB time=00:00:04.16 bitrate=2516.7kbits/s speed=0.0142x elapsed=0:04:53.43    \nframe=  103 fps=0.4 q=29.7 size=    1280KiB time=00:00:04.20 bitrate=2491.7kbits/s speed=0.0143x elapsed=0:04:53.97    \nframe=  104 fps=0.4 q=31.9 size=    1536KiB time=00:00:04.25 bitrate=2960.8kbits/s speed=0.0144x elapsed=0:04:54.49    \nframe=  104 fps=0.4 q=31.9 size=    1536KiB time=00:00:04.25 bitrate=2960.8kbits/s speed=0.0144x elapsed=0:04:55.01    \nframe=  105 fps=0.4 q=34.3 size=    1536KiB time=00:00:04.29 bitrate=2932.0kbits/s speed=0.0145x elapsed=0:04:55.53    \nframe=  105 fps=0.4 q=34.3 size=    1536KiB time=00:00:04.29 bitrate=2932.0kbits/s speed=0.0145x elapsed=0:04:56.03    \nframe=  106 fps=0.4 q=34.2 size=    1536KiB time=00:00:04.33 bitrate=2903.8kbits/s speed=0.0146x elapsed=0:04:56.56    \nframe=  108 fps=0.4 q=31.7 size=    1536KiB time=00:00:04.41 bitrate=2849.0kbits/s speed=0.0149x elapsed=0:04:57.07    \nframe=  108 fps=0.4 q=31.7 size=    1536KiB time=00:00:04.41 bitrate=2849.0kbits/s speed=0.0148x elapsed=0:04:57.60    \nframe=  109 fps=0.4 q=34.2 size=    1536KiB time=00:00:04.45 bitrate=2822.4kbits/s speed=0.015x elapsed=0:04:58.11    \nframe=  110 fps=0.4 q=34.2 size=    1536KiB time=00:00:04.50 bitrate=2796.3kbits/s speed=0.0151x elapsed=0:04:58.63    \nframe=  111 fps=0.4 q=29.6 size=    1536KiB time=00:00:04.54 bitrate=2770.6kbits/s speed=0.0152x elapsed=0:04:59.17    \nframe=  112 fps=0.4 q=31.7 size=    1536KiB time=00:00:04.58 bitrate=2745.4kbits/s speed=0.0153x elapsed=0:04:59.70    \nframe=  112 fps=0.4 q=31.7 size=    1536KiB time=00:00:04.58 bitrate=2745.4kbits/s speed=0.0153x elapsed=0:05:00.22    \nframe=  113 fps=0.4 q=34.4 size=    1536KiB time=00:00:04.62 bitrate=2720.7kbits/s speed=0.0154x elapsed=0:05:00.74    \nframe=  114 fps=0.4 q=34.3 size=    1536KiB time=00:00:04.66 bitrate=2696.4kbits/s speed=0.0155x elapsed=0:05:01.26    \nframe=  115 fps=0.4 q=29.6 size=    1536KiB time=00:00:04.70 bitrate=2672.6kbits/s speed=0.0156x elapsed=0:05:01.78    \nframe=  116 fps=0.4 q=31.7 size=    1536KiB time=00:00:04.75 bitrate=2649.1kbits/s speed=0.0157x elapsed=0:05:02.29    \nframe=  116 fps=0.4 q=31.7 size=    1536KiB time=00:00:04.75 bitrate=2649.1kbits/s speed=0.0157x elapsed=0:05:02.81    \nframe=  117 fps=0.4 q=34.3 size=    1536KiB time=00:00:04.79 bitrate=2626.1kbits/s speed=0.0158x elapsed=0:05:03.33    \nframe=  118 fps=0.4 q=34.3 size=    1536KiB time=00:00:04.83 bitrate=2603.4kbits/s speed=0.0159x elapsed=0:05:03.85    \nframe=  118 fps=0.4 q=34.3 size=    1536KiB time=00:00:04.83 bitrate=2603.4kbits/s speed=0.0159x elapsed=0:05:04.37    \nframe=  120 fps=0.4 q=31.8 size=    1536KiB time=00:00:04.91 bitrate=2559.3kbits/s speed=0.0161x elapsed=0:05:04.88    \nframe=  120 fps=0.4 q=31.8 size=    1536KiB time=00:00:04.91 bitrate=2559.3kbits/s speed=0.0161x elapsed=0:05:05.39    \nframe=  121 fps=0.4 q=34.5 size=    1792KiB time=00:00:04.95 bitrate=2960.8kbits/s speed=0.0162x elapsed=0:05:05.92    \nframe=  122 fps=0.4 q=34.6 size=    1792KiB time=00:00:05.00 bitrate=2936.1kbits/s speed=0.0163x elapsed=0:05:06.44    \nframe=  123 fps=0.4 q=29.4 size=    1792KiB time=00:00:05.04 bitrate=2911.8kbits/s speed=0.0164x elapsed=0:05:06.96    \nframe=  124 fps=0.4 q=31.7 size=    1792KiB time=00:00:05.08 bitrate=2888.0kbits/s speed=0.0165x elapsed=0:05:07.48    \nframe=  125 fps=0.4 q=34.4 size=    1792KiB time=00:00:05.12 bitrate=2864.5kbits/s speed=0.0166x elapsed=0:05:08.00    \nframe=  126 fps=0.4 q=34.4 size=    1792KiB time=00:00:05.16 bitrate=2841.4kbits/s speed=0.0167x elapsed=0:05:08.52    \nframe=  126 fps=0.4 q=34.4 size=    1792KiB time=00:00:05.16 bitrate=2841.4kbits/s speed=0.0167x elapsed=0:05:09.04    \nframe=  127 fps=0.4 q=29.5 size=    1792KiB time=00:00:05.20 bitrate=2818.6kbits/s speed=0.0168x elapsed=0:05:09.55    \nframe=  128 fps=0.4 q=31.5 size=    1792KiB time=00:00:05.25 bitrate=2796.3kbits/s speed=0.0169x elapsed=0:05:10.08    \nframe=  129 fps=0.4 q=34.2 size=    1792KiB time=00:00:05.29 bitrate=2774.3kbits/s speed=0.017x elapsed=0:05:10.61    \nframe=  130 fps=0.4 q=34.4 size=    1792KiB time=00:00:05.33 bitrate=2752.6kbits/s speed=0.0171x elapsed=0:05:11.13    \nframe=  130 fps=0.4 q=34.4 size=    1792KiB time=00:00:05.33 bitrate=2752.6kbits/s speed=0.0171x elapsed=0:05:11.65    \nframe=  131 fps=0.4 q=29.6 size=    1792KiB time=00:00:05.37 bitrate=2731.2kbits/s speed=0.0172x elapsed=0:05:12.17    \nframe=  132 fps=0.4 q=31.6 size=    1792KiB time=00:00:05.41 bitrate=2710.2kbits/s speed=0.0173x elapsed=0:05:12.70    \nframe=  133 fps=0.4 q=34.2 size=    1792KiB time=00:00:05.45 bitrate=2689.5kbits/s speed=0.0174x elapsed=0:05:13.20    \nframe=  134 fps=0.4 q=34.2 size=    1792KiB time=00:00:05.50 bitrate=2669.2kbits/s speed=0.0175x elapsed=0:05:13.72    \nframe=  134 fps=0.4 q=34.2 size=    1792KiB time=00:00:05.50 bitrate=2669.2kbits/s speed=0.0175x elapsed=0:05:14.24    \nframe=  136 fps=0.4 q=31.4 size=    1792KiB time=00:00:05.58 bitrate=2629.3kbits/s speed=0.0177x elapsed=0:05:14.76    \nframe=  137 fps=0.4 q=34.1 size=    1792KiB time=00:00:05.62 bitrate=2609.9kbits/s speed=0.0178x elapsed=0:05:15.27    \nframe=  138 fps=0.4 q=34.1 size=    1792KiB time=00:00:05.66 bitrate=2590.7kbits/s speed=0.0179x elapsed=0:05:15.79    \nframe=  139 fps=0.4 q=31.8 size=    2048KiB time=00:00:05.70 bitrate=2939.1kbits/s speed=0.018x elapsed=0:05:16.31    \nframe=  139 fps=0.4 q=31.8 size=    2048KiB time=00:00:05.70 bitrate=2939.1kbits/s speed=0.018x elapsed=0:05:16.83    \nframe=  141 fps=0.4 q=25.5 size=    2048KiB time=00:00:05.79 bitrate=2896.8kbits/s speed=0.0182x elapsed=0:05:17.35    \nframe=  142 fps=0.4 q=28.3 size=    2048KiB time=00:00:05.83 bitrate=2876.2kbits/s speed=0.0184x elapsed=0:05:17.86    \nframe=  145 fps=0.5 q=36.1 size=    2048KiB time=00:00:05.95 bitrate=2815.8kbits/s speed=0.0187x elapsed=0:05:18.38    \nframe=  146 fps=0.5 q=36.2 size=    2048KiB time=00:00:06.00 bitrate=2796.3kbits/s speed=0.0188x elapsed=0:05:18.90    \nframe=  148 fps=0.5 q=31.3 size=    2048KiB time=00:00:06.08 bitrate=2758.0kbits/s speed=0.019x elapsed=0:05:19.42    \nframe=  150 fps=0.5 q=32.8 size=    2048KiB time=00:00:06.16 bitrate=2720.7kbits/s speed=0.0193x elapsed=0:05:19.93    \nframe=  151 fps=0.5 q=27.2 size=    2048KiB time=00:00:06.20 bitrate=2702.4kbits/s speed=0.0194x elapsed=0:05:20.44    \nframe=  152 fps=0.5 q=30.6 size=    2048KiB time=00:00:06.25 bitrate=2684.4kbits/s speed=0.0195x elapsed=0:05:20.97    \nframe=  154 fps=0.5 q=32.4 size=    2304KiB time=00:00:06.33 bitrate=2980.2kbits/s speed=0.0197x elapsed=0:05:21.49    \nframe=  155 fps=0.5 q=26.5 size=    2304KiB time=00:00:06.37 bitrate=2960.7kbits/s speed=0.0198x elapsed=0:05:22.00    \nframe=  158 fps=0.5 q=31.2 size=    2304KiB time=00:00:06.50 bitrate=2903.8kbits/s speed=0.0202x elapsed=0:05:22.52    \nframe=  159 fps=0.5 q=32.0 size=    2304KiB time=00:00:06.54 bitrate=2885.3kbits/s speed=0.0203x elapsed=0:05:23.04    \nframe=  160 fps=0.5 q=26.7 size=    2304KiB time=00:00:06.58 bitrate=2867.0kbits/s speed=0.0203x elapsed=0:05:23.55    \nframe=  163 fps=0.5 q=32.0 size=    2304KiB time=00:00:06.70 bitrate=2813.6kbits/s speed=0.0207x elapsed=0:05:24.07    \nframe=  164 fps=0.5 q=32.1 size=    2304KiB time=00:00:06.75 bitrate=2796.3kbits/s speed=0.0208x elapsed=0:05:24.59    \nframe=  166 fps=0.5 q=27.0 size=    2304KiB time=00:00:06.83 bitrate=2762.2kbits/s speed=0.021x elapsed=0:05:25.11    \nframe=  169 fps=0.5 q=32.0 size=    2304KiB time=00:00:06.95 bitrate=2712.5kbits/s speed=0.0214x elapsed=0:05:25.61    \nframe=  170 fps=0.5 q=26.8 size=    2304KiB time=00:00:07.00 bitrate=2696.4kbits/s speed=0.0215x elapsed=0:05:26.13    \nframe=  173 fps=0.5 q=31.8 size=    2560KiB time=00:00:07.12 bitrate=2943.4kbits/s speed=0.0218x elapsed=0:05:26.64    \nframe=  176 fps=0.5 q=30.3 size=    2560KiB time=00:00:07.25 bitrate=2892.7kbits/s speed=0.0222x elapsed=0:05:27.17    \nframe=  178 fps=0.5 q=31.4 size=    2560KiB time=00:00:07.33 bitrate=2859.8kbits/s speed=0.0224x elapsed=0:05:27.69    \nframe=  181 fps=0.6 q=29.1 size=    2560KiB time=00:00:07.45 bitrate=2811.9kbits/s speed=0.0227x elapsed=0:05:28.21    \nframe=  184 fps=0.6 q=26.0 size=    2560KiB time=00:00:07.58 bitrate=2765.5kbits/s speed=0.0231x elapsed=0:05:28.72    \nframe=  187 fps=0.6 q=30.5 size=    2560KiB time=00:00:07.70 bitrate=2720.7kbits/s speed=0.0234x elapsed=0:05:29.25    \nframe=  189 fps=0.6 q=29.1 size=    2560KiB time=00:00:07.79 bitrate=2691.6kbits/s speed=0.0236x elapsed=0:05:29.77    \nframe=  192 fps=0.6 q=29.5 size=    2816KiB time=00:00:07.91 bitrate=2914.0kbits/s speed=0.024x elapsed=0:05:30.28    \nframe=  194 fps=0.6 q=24.4 size=    2816KiB time=00:00:08.00 bitrate=2883.6kbits/s speed=0.0242x elapsed=0:05:30.80    \nframe=  197 fps=0.6 q=31.0 size=    2816KiB time=00:00:08.12 bitrate=2839.3kbits/s speed=0.0245x elapsed=0:05:31.32    \nframe=  199 fps=0.6 q=25.4 size=    2816KiB time=00:00:08.20 bitrate=2810.4kbits/s speed=0.0247x elapsed=0:05:31.84    \nframe=  202 fps=0.6 q=29.8 size=    2816KiB time=00:00:08.33 bitrate=2768.3kbits/s speed=0.0251x elapsed=0:05:32.35    \nframe=  205 fps=0.6 q=30.5 size=    2816KiB time=00:00:08.45 bitrate=2727.4kbits/s speed=0.0254x elapsed=0:05:32.88    \nframe=  208 fps=0.6 q=24.7 size=    3072KiB time=00:00:08.58 bitrate=2932.0kbits/s speed=0.0257x elapsed=0:05:33.39    \nframe=  211 fps=0.6 q=29.9 size=    3072KiB time=00:00:08.70 bitrate=2889.9kbits/s speed=0.0261x elapsed=0:05:33.91    \nframe=  214 fps=0.6 q=27.8 size=    3072KiB time=00:00:08.83 bitrate=2849.0kbits/s speed=0.0264x elapsed=0:05:34.43    \nframe=  216 fps=0.6 q=29.4 size=    3072KiB time=00:00:08.91 bitrate=2822.4kbits/s speed=0.0266x elapsed=0:05:34.94    \nframe=  219 fps=0.7 q=27.7 size=    3072KiB time=00:00:09.04 bitrate=2783.4kbits/s speed=0.027x elapsed=0:05:35.46    \nframe=  222 fps=0.7 q=27.7 size=    3072KiB time=00:00:09.16 bitrate=2745.4kbits/s speed=0.0273x elapsed=0:05:35.97    \nframe=  225 fps=0.7 q=27.4 size=    3328KiB time=00:00:09.29 bitrate=2934.2kbits/s speed=0.0276x elapsed=0:05:36.49    \nframe=  228 fps=0.7 q=25.4 size=    3328KiB time=00:00:09.41 bitrate=2895.2kbits/s speed=0.0279x elapsed=0:05:37.01    \nframe=  231 fps=0.7 q=26.7 size=    3328KiB time=00:00:09.54 bitrate=2857.3kbits/s speed=0.0283x elapsed=0:05:37.52    \nframe=  235 fps=0.7 q=26.7 size=    3328KiB time=00:00:09.70 bitrate=2808.2kbits/s speed=0.0287x elapsed=0:05:38.05    \nframe=  238 fps=0.7 q=23.4 size=    3328KiB time=00:00:09.83 bitrate=2772.5kbits/s speed=0.029x elapsed=0:05:38.55    \n[mp4 @ 000002e87ea5b680] Starting second pass: moving the moov atom to the beginning of the file\n[out#0/mp4 @ 000002e87ea5b580] video:3593KiB audio:0KiB subtitle:0KiB other streams:0KiB global headers:2KiB muxing overhead: 0.173111%\nframe=  240 fps=0.7 q=24.5 Lsize=    3600KiB time=00:00:09.91 bitrate=2973.7kbits/s speed=0.0293x elapsed=0:05:38.60    \nx265 [info]: frame I:      2, Avg QP:28.17  kb/s: 14965.73\nx265 [info]: frame P:     55, Avg QP:28.57  kb/s: 6911.33 \nx265 [info]: frame B:    183, Avg QP:32.28  kb/s: 1618.95 \nx265 [info]: Weighted P-Frames: Y:0.0% UV:0.0%\n\nencoded 240 frames in 338.24s (0.71 fps), 2943.01 kb/s, Avg QP:31.40\n",
  "seconds": 338.81636357307434,
  "probe_out": {}
}